<svg width="57" height="8" viewBox="0 0 57 8" fill="none" xmlns="http://www.w3.org/2000/svg">
<path d="M40.4 0.166667H39.3V4.16667H39.3333C39.3333 4.16667 39.4333 4.16667 39.5666 4.16667H39.9C40.2 4.16667 40.3666 3.96666 40.3666 3.69999V2.46666H41.4V1.5H40.3666V0.166667H40.4ZM41.8666 4.96666H49.3V4.1H41.8666V4.96666ZM44.2667 6.83333V5.56666H43.0666V7.06666C43.0666 7.49999 43.3333 7.83333 44.0333 7.83333H48.5V6.96666H44.4C44.3333 6.96666 44.2667 6.9 44.2667 6.83333ZM31.4666 1.06666H30.2666V1.89999H31.4666V2.63333H30.2666V3.46666H31.4666V4.3H32.0999C32.3999 4.3 32.5666 4.1 32.5666 3.83333V0.166667H31.4666V1.06666ZM30.1666 4.36666C28.9332 4.36666 27.9332 5.16667 27.9332 6.16667C27.9332 7.16667 28.9332 7.96666 30.1666 7.96666C31.3999 7.96666 32.3999 7.16667 32.3999 6.16667C32.3999 5.2 31.3999 4.36666 30.1666 4.36666ZM30.1666 7.1C29.5666 7.1 29.0665 6.66667 29.0665 6.16667C29.0665 5.66667 29.5666 5.23333 30.1666 5.23333C30.7666 5.23333 31.2666 5.66667 31.2666 6.16667C31.2332 6.7 30.7666 7.1 30.1666 7.1ZM45.6 3.53333C46.8667 3.53333 47.8667 2.73333 47.9 1.76666C47.9 0.799996 46.8667 0 45.6 0C44.3333 0 43.3 0.799996 43.3 1.76666C43.3 2.76666 44.3333 3.53333 45.6 3.53333ZM45.6 0.866659C46.2333 0.866659 46.7667 1.26666 46.7667 1.8C46.7667 2.3 46.2667 2.73333 45.6 2.73333C44.9667 2.73333 44.4333 2.33333 44.4333 1.8C44.4333 1.26666 44.9667 0.866659 45.6 0.866659ZM30.1332 0.466665V0.433329H26.1999V1.26666H28.8332C28.5999 2.33333 27.3999 3.19999 26.0665 3.56666H26.0332L26.2332 4.3H26.2665C28.2332 3.86666 30.0332 2.73333 30.1332 0.466665ZM35.3999 7.06666C35.3999 7.49999 35.6666 7.83333 36.3666 7.83333H39.4333C40.1333 7.83333 40.4 7.49999 40.4 7.06666V4.76666H35.3999V7.06666ZM36.5999 5.6H39.2666V6.83333C39.2666 6.9 39.2 6.96666 39.1 6.96666H36.7666C36.6666 6.96666 36.5999 6.9 36.5999 6.83333V5.6ZM38.6 3.5L38.6333 2.69999L38.5666 2.73333C38.2999 2.89999 37.8999 2.96666 37.3999 2.96666C36.8999 2.96666 35.6333 2.96666 35.6333 2.96666C35.5333 2.96666 35.4666 2.9 35.4666 2.83333V0.433329H34.1999V3.06666C34.1999 3.49999 34.4666 3.83333 35.1666 3.83333H37.2333C37.7999 3.83333 38.2333 3.73333 38.6 3.5ZM53.5334 2.83333C53.5334 2.33333 53.3001 1.9 52.9334 1.6H53.6334V0.833333H52.3667V0.166667H51.2V0.833333H49.9334V1.6H50.6334C50.2334 1.9 50.0334 2.33333 50.0334 2.83333C50.0334 3.7 50.8 4.39999 51.8 4.39999C52.7667 4.39999 53.5334 3.7 53.5334 2.83333ZM51.7667 3.63333C51.2667 3.63333 50.9334 3.26666 50.9334 2.8C50.9334 2.33333 51.2667 1.96666 51.7667 1.96666C52.2667 1.96666 52.6 2.33333 52.6 2.8C52.6 3.26666 52.2667 3.63333 51.7667 3.63333ZM55.6001 0.166667V1.63333H55.1001V0.166667H54.0667V4.1H54.6667C54.9334 4.1 55.1001 3.9 55.1001 3.66667V2.56666H55.6001V4.1H56.2001C56.5001 4.1 56.6334 3.9 56.6334 3.66667V0.199992H55.6001V0.166667ZM54.3 4.39999C53.0667 4.39999 52.0667 5.19999 52.0667 6.19999C52.0667 7.19999 53.0667 8 54.3 8C55.5334 8 56.5334 7.19999 56.5334 6.19999C56.5334 5.19999 55.5334 4.43333 54.3 4.39999ZM54.3 7.13333C53.7 7.13333 53.2 6.69999 53.2 6.19999C53.2 5.69999 53.7 5.26666 54.3 5.26666C54.9001 5.26666 55.4001 5.69999 55.4001 6.19999C55.4001 6.69999 54.9001 7.13333 54.3 7.13333Z" fill="#6F634F"/>
<path d="M22.7 1.72383H23.3334C23.3667 1.72383 23.4 1.6905 23.4 1.65717V0.490499C23.4 0.457166 23.3667 0.423828 23.3334 0.423828H22.4667C21.4667 0.423828 20.9333 0.757161 20.6 1.42383L18.7 6.09049C18.6 6.35716 18.4333 6.4905 18.1 6.4905V0.490499C18.1 0.457166 18.0667 0.423828 18.0333 0.423828H16.6333C16.6 0.423828 16.5667 0.457166 16.5667 0.490499V7.69049C16.5667 7.75716 16.6333 7.82383 16.7 7.82383H18.2667C19.2667 7.82383 19.7333 7.4905 20.0333 6.82383L21.9 2.22383C22.0667 1.89049 22.2667 1.72383 22.7 1.72383Z" fill="#D7000F"/>
<path d="M5.63337 4.13555C6.20004 3.90222 6.66671 3.36888 6.66671 2.50222C6.66671 1.20222 5.56671 0.435547 4.23336 0.435547H0.100007C0.0666732 0.435547 0.0333356 0.468884 0.0333356 0.502218V1.66888C0.0333356 1.70222 0.0666732 1.73554 0.100007 1.73554H3.93336C4.5667 1.73554 4.9667 2.10221 4.9667 2.56888C4.9667 3.03554 4.53337 3.40221 3.93336 3.40221H1.63334V2.53554C1.63334 2.50221 1.60001 2.46888 1.56668 2.46888H0.0666712C0.0333376 2.46888 0 2.50221 0 2.53554V7.76888C0 7.80221 0.0333376 7.83555 0.0666712 7.83555H4.13336C5.6667 7.83555 6.73338 7.13555 6.73338 5.66888C6.73338 4.96888 6.33337 4.36888 5.63337 4.13555ZM4.00003 6.53554H1.63334V4.80222H4.00003C4.63336 4.80222 5.0667 5.20222 5.0667 5.66888C5.0667 6.16888 4.63336 6.53554 4.00003 6.53554Z" fill="#D7000F"/>
<path d="M24.1665 7.73658L21.7665 4.66992H21.7332L21.0999 6.23658V6.26992L22.1332 7.66992C22.1999 7.76992 22.2998 7.80325 22.3998 7.80325H24.0999C24.1665 7.83659 24.1999 7.80325 24.1665 7.73658Z" fill="#D7000F"/>
<path d="M9.36682 2.5H7.96681C7.93347 2.5 7.90015 2.53333 7.90015 2.56666V7.76666C7.90015 7.79999 7.93347 7.83333 7.96681 7.83333H9.36682C9.40015 7.83333 9.43349 7.79999 9.43349 7.76666V2.56666C9.46683 2.53333 9.40015 2.5 9.36682 2.5Z" fill="#D7000F"/>
<path d="M15.1335 0.423828H13.7335C13.7002 0.423828 13.6668 0.457166 13.6668 0.490499V6.4905C13.3335 6.4905 13.1668 6.35716 13.0668 6.0905L11.1668 1.42383C10.8668 0.723828 10.3335 0.423828 9.30015 0.423828H7.96681C7.93347 0.423828 7.90015 0.457166 7.90015 0.490499V1.65717C7.90015 1.6905 7.93347 1.72383 7.96681 1.72383H9.03349C9.46682 1.72383 9.70015 1.85716 9.83349 2.19049L11.7002 6.7905C12.0002 7.4905 12.4668 7.7905 13.4668 7.7905H15.0335C15.1002 7.7905 15.1669 7.72383 15.1669 7.65717V0.457163C15.2002 0.457163 15.1669 0.423828 15.1335 0.423828Z" fill="#D7000F"/>
</svg>
