<svg width="53" height="14" viewBox="0 0 53 14" fill="none" xmlns="http://www.w3.org/2000/svg">
<path d="M19.2201 2.33398H17.1294V11.3843H23.5516V9.62212H19.2201V2.33398Z" fill="#6B6B6B"/>
<path d="M28.1509 7.93644H29.8525V9.51819C29.5398 9.63822 28.9279 9.75824 28.3457 9.75824C26.4633 9.75824 25.8358 8.80177 25.8358 6.85995C25.8358 4.91812 26.4326 3.91804 28.3147 3.91804C29.3599 3.91804 29.9578 4.24681 30.4502 4.87377L31.7507 3.68005C30.9588 2.54484 29.5692 2.20117 28.27 2.20117C25.3427 2.20117 23.804 3.79895 23.804 6.84504C23.804 9.89113 25.1928 11.5195 28.2553 11.5195C29.6585 11.5195 31.0326 11.1614 31.7802 10.6387V6.24827H28.1509V7.93663V7.93644Z" fill="#6B6B6B"/>
<path d="M33.649 2.46473V3.7919H35.479V4.13315C35.479 5.50131 34.9256 6.22556 33.4373 6.69802L34.0007 7.96517C35.0266 7.72438 36.0321 7.12053 36.4446 6.29601C36.8866 7.12053 37.8536 7.69362 38.748 7.90479L39.4616 6.45722C38.1644 6.17599 37.2294 5.47112 37.2294 4.12327V3.79171H39.029V2.46454H33.649V2.46473ZM41.9869 2.2832H40.3072V4.19428H38.7278V5.57195H40.3072V9.06272H41.786C41.9062 8.58915 41.9869 7.79464 41.9869 7.22173V2.2832ZM42.1577 10.3086H37.2089C37.079 10.3086 37.0382 10.2788 37.0382 10.1379V8.17708H35.3584V10.8213C35.3584 11.3952 35.6495 11.6669 36.2239 11.6669H42.1577V10.3084V10.3086ZM43.1128 2.45448V3.77195H45.0244V4.40879C45.0244 6.08802 44.6828 7.1442 42.9427 7.90907L43.5961 9.0754C44.5919 8.70377 45.5275 7.99909 45.9595 7.10413C46.3919 7.94914 47.2974 8.64338 48.1717 8.98463L48.956 7.61721C47.2663 6.98336 46.683 5.99744 46.683 4.39854V3.77195H48.5428V2.45448H43.1126H43.1128ZM52.8473 4.77912H51.1779V2.2832H49.5688V11.6671H50.9763C51.1071 11.1138 51.1779 10.1631 51.1779 9.41888V6.12716H52.8473V4.77912Z" fill="#6B6B6B"/>
<path d="M6.99998 14C10.8667 14 14 10.8637 14 6.99907C14 3.13443 10.8667 0 6.99998 0C3.1333 0 0 3.13238 0 6.99907C0 10.8658 3.13424 14 6.99998 14Z" fill="#A50034"/>
<path d="M6.72192 3.92773V10.0643H8.67213V9.51801H7.27881V3.92773H6.72192Z" fill="white"/>
<path d="M4.76542 5.60268C5.22968 5.60268 5.60578 5.22658 5.60578 4.76456C5.60578 4.30254 5.22968 3.92383 4.76542 3.92383C4.30117 3.92383 3.92749 4.30012 3.92749 4.76456C3.92749 5.229 4.30471 5.60268 4.76542 5.60268Z" fill="white"/>
<path d="M7.27915 1.1437C7.20759 1.14072 7.06799 1.13867 7.00071 1.13867C3.77143 1.13867 1.14282 3.76784 1.14282 6.999C1.14282 8.56435 1.75058 10.0343 2.8554 11.1406C3.96581 12.2476 5.43816 12.8565 7.00071 12.8565C8.56326 12.8565 10.036 12.2476 11.1462 11.1406C12.2501 10.0343 12.858 8.56416 12.858 6.999V6.73155L12.6245 6.73342H8.67677V7.27726H12.3021V7.35609C12.1159 10.1193 9.80935 12.3099 7.00071 12.3099C5.5826 12.3099 4.24929 11.7579 3.24586 10.755C2.24205 9.75192 1.68945 8.41749 1.68945 6.99919C1.68945 5.58088 2.24205 4.24589 3.24586 3.24357C4.2491 2.23846 5.5826 1.68661 7.00071 1.68661C7.06483 1.68661 7.21542 1.68791 7.27915 1.68941V1.1437Z" fill="white"/>
</svg>
