<svg width="63" height="20" viewBox="0 0 63 20" fill="none" xmlns="http://www.w3.org/2000/svg">
<path d="M14.1227 18.3135C11.874 20.5622 8.16015 20.5622 5.87735 18.3135L1.68654 14.1227C-0.562182 11.8739 -0.562182 8.16014 1.68654 5.87735L5.87735 1.68654C8.12608 -0.56218 11.8399 -0.56218 14.1227 1.68654L18.3135 5.87735C20.5622 8.12607 20.5622 11.8399 18.3135 14.1227L14.1227 18.3135Z" fill="#E60013"/>
<path d="M7.5127 16.1777C7.17199 16.1777 6.89941 15.9052 6.89941 15.5985C6.89941 15.4282 6.93349 15.2919 7.06977 15.1556C7.17199 15.0193 7.34235 14.9512 7.5127 14.9512C7.85342 14.9512 8.12599 15.1897 8.16007 15.5304C8.16007 15.8711 7.88749 16.1437 7.5127 16.1777C7.54678 16.1777 7.54678 16.1777 7.5127 16.1777Z" fill="white"/>
<path d="M9.79562 4.7511C9.4549 4.7511 9.18233 4.85331 8.9779 5.09181C8.5009 5.56881 8.2624 6.52282 8.2624 7.81754C8.29647 9.4189 8.67126 12.5535 9.93191 14.1548C10.1363 14.4274 10.3408 14.6319 10.5793 14.7681C10.7837 14.9044 11.0563 15.0407 11.4311 15.0407C11.5333 15.0407 11.6355 15.0407 11.7718 15.0066C12.4873 14.8363 13.4072 14.0186 14.0546 12.9623C14.1568 12.792 14.3271 12.6898 14.5316 12.6898C14.6338 12.6898 14.736 12.7238 14.8382 12.792C14.9745 12.8601 15.0426 12.9964 15.0767 13.1327C15.1108 13.269 15.0767 13.4393 15.0086 13.5416C14.1568 14.9044 13.0324 15.8244 12.0103 16.0629C12.0103 16.0629 12.0103 16.0629 11.9762 16.0629C11.7718 16.0969 11.6014 16.0969 11.4311 16.0969C10.7837 16.0969 10.3067 15.8584 9.96598 15.6199C9.62526 15.4155 9.31862 15.1089 9.04604 14.7681C7.27432 12.4853 7.17211 8.2264 7.13803 7.7494C7.10396 6.62504 7.27432 5.09182 8.16018 4.20596C8.60311 3.76303 9.14826 3.55859 9.76155 3.55859H9.86376C10.5111 3.55859 11.0563 3.76303 11.4651 4.20596C12.351 5.09182 12.5213 6.62504 12.4873 7.7494C12.4532 8.9419 12.2488 11.2247 11.0222 13.269C10.92 13.4393 10.7496 13.5416 10.5452 13.5416C10.443 13.5416 10.3408 13.5075 10.2726 13.4734C10 13.3031 9.93191 12.9623 10.0682 12.7238C10.92 11.2928 11.3288 9.72555 11.3629 7.7494C11.397 6.45468 11.1244 5.46661 10.6474 5.02368C10.443 4.81925 10.1704 4.68296 9.82969 4.68296H9.79562V4.7511Z" fill="white"/>
<path d="M44.6512 11.8171C47.0021 11.306 49.6938 9.43211 49.6938 5.88867H44.583V6.53603H48.2968C48.2628 8.10332 47.1384 10.4543 44.2083 11.272L44.6512 11.8171Z" fill="#E60013"/>
<path d="M52.2487 5.54102H50.8518V14.4678H52.2487V5.54102Z" fill="#E60013"/>
<path d="M51.7722 8.9579V8.31055H53.6802V8.9579H51.7722Z" fill="#E60013"/>
<path d="M44.5825 8.7372V8.08984H48.3985V8.7372H44.5825Z" fill="#E60013"/>
<path d="M56.5762 9.92864C56.4059 9.92864 56.2696 9.79236 56.2696 9.622V6.55556H61.9596V5.9082H54.9067V9.92864C54.9067 10.2694 55.1793 10.576 55.5541 10.576H62.0618V9.92864H56.5762Z" fill="#E60013"/>
<path d="M54.1226 13.2685V12.6211H62.8449V13.2685H54.1226Z" fill="#E60013"/>
<path d="M42.4365 5.57617H41.1077V14.5029H42.4365V5.57617Z" fill="#E60013"/>
<path d="M32.6576 10.9204V10.273H28.9779V9.2168H27.581V10.273H23.9353V10.9204H32.6576Z" fill="#E60013"/>
<path d="M26.0478 7.88674H31.7718V5.74023H24.6509V6.38759H30.3749V7.27345H24.6509V8.80667C24.6509 9.14739 24.9235 9.45403 25.2982 9.45403H31.8741V8.80667H26.3545C26.1841 8.80667 26.0478 8.67038 26.0478 8.50002V7.88674Z" fill="#E60013"/>
<path d="M35.9967 11.2991C35.8263 11.2991 35.69 11.1628 35.69 10.9925V6.56316H38.1432V5.9158H34.3271V11.2991C34.3271 11.6398 34.5997 11.9465 34.9745 11.9465H37.9387C38.3817 11.9465 38.7565 11.8783 38.995 11.708V14.4678H40.3237V5.54102H38.995V8.40302H37.3254V9.18666H38.995V11.0606C38.6542 11.1969 38.3817 11.265 37.9387 11.265H35.9967V11.2991Z" fill="#E60013"/>
<path d="M29.0124 11.3281H27.4792C27.0703 13.0317 25.0601 13.8153 24.3105 13.9176L24.6853 14.4968C25.4349 14.3946 27.1385 13.8494 28.2288 12.691C29.3191 13.8494 31.0227 14.3946 31.7722 14.4968L32.147 13.9176C31.4315 13.8153 29.4213 13.0317 29.0124 11.3281Z" fill="#E60013"/>
</svg>
