<svg width="50" height="16" viewBox="0 0 50 16" fill="none" xmlns="http://www.w3.org/2000/svg">
<g clip-path="url(#clip0_6957_18449)">
<path d="M6.40588 6.07418L3.21167 0L6.40588 1.60291L9.60009 0L6.40588 6.07418Z" fill="#FCC800"/>
<path d="M10.6144 4.75699L12.7943 3.8319V0.640625L8.88799 2.30172L6.72266 6.40935C8.33866 6.56645 9.60007 7.93372 9.60007 9.5919C9.60007 11.3606 8.17009 12.789 6.40586 12.789C4.64163 12.789 3.20874 11.3606 3.20874 9.5919C3.20874 7.93372 4.47306 6.56645 6.08615 6.40935L3.92373 2.30172L0.0174388 0.640625V3.8319L2.19729 4.75699C0.851596 5.92935 0 7.66026 0 9.58899C0 13.1294 2.86578 15.9977 6.40586 15.9977C9.94594 15.9977 12.8117 13.1294 12.8117 9.58899C12.8117 7.66026 11.9601 5.92935 10.6144 4.75408V4.75699Z" fill="#FCC800"/>
<path d="M49.4011 2.34218H47.5352V4.80909H44.899H42.3587C42.6465 5.15237 42.8238 5.60037 42.8238 6.08909C42.8238 7.18582 41.9344 8.08182 40.8328 8.08182C39.7313 8.08182 38.8419 7.18582 38.8419 6.08909C38.8419 4.99237 39.7284 4.09927 40.827 4.09346H44.2043H44.2014H45.6198C45.7622 4.09346 45.8698 3.99455 45.8843 3.84909C45.8843 3.84909 45.9366 3.53782 45.8785 3.27891C45.8523 3.14218 45.7564 3.052 45.614 3.052H42.0623V2.72618C42.0536 2.39455 41.792 2.12982 41.4665 2.12109H39.5976V3.05491L35.3716 3.05782L36.1185 4.09637H37.4642C36.7696 4.62873 36.3453 5.32691 36.3453 6.092C36.3453 7.756 38.3536 9.11455 40.8357 9.11455C42.4779 9.11455 43.9166 8.51818 44.6955 7.628H47.5323V10.6331H39.7749V9.87964C39.7691 9.54509 39.5075 9.28036 39.1762 9.26873H37.3102V13.1844C37.3131 13.7865 37.7956 14.2782 38.3914 14.2898H49.9998V2.95018C49.9911 2.61855 49.7295 2.35382 49.4011 2.34509V2.34218ZM45.2565 6.58364C45.2972 6.42073 45.3175 6.252 45.3175 6.08618C45.3175 6.00182 45.3117 5.92618 45.303 5.84473H47.5352V6.58364H45.2594H45.2565ZM39.9842 13.2455C39.708 13.2309 39.7807 13.0127 39.7749 12.7364V11.6687H47.5323V13.2484H39.9842V13.2455Z" fill="#1EAC4B"/>
<path d="M32.843 8.45089C32.8169 8.31125 32.721 8.22107 32.5815 8.22107H26.8296V6.72289H32.2995C32.442 6.72289 32.5291 6.63562 32.5495 6.49307C32.5495 6.49307 32.6047 6.14689 32.5437 5.90834C32.4943 5.67852 32.2966 5.68143 32.2966 5.68143H21.8101C21.5398 5.6698 21.3218 5.44871 21.3189 5.17525V2.94689C21.3131 2.61525 21.0515 2.35052 20.7202 2.3418H18.8484L18.8542 5.62034C18.8542 6.22543 19.3338 6.71125 19.9354 6.71998H24.3678V8.21816H17.8398L18.5897 9.25962H20.3162C19.5954 9.75707 19.1216 10.5803 19.1216 11.5113C19.1216 12.7011 20.2144 14.8276 25.6176 14.8276C31.0207 14.8276 32.1193 12.6923 32.1193 11.5113C32.1193 10.8509 31.8781 10.2429 31.4799 9.7658H28.4833C28.4833 9.7658 28.495 9.7658 28.5008 9.77162C29.1257 10.048 29.5704 10.7229 29.5704 11.5113C29.5704 12.2996 29.1199 13.7716 25.6147 13.7716C22.1094 13.7716 21.6619 12.3229 21.6619 11.5113C21.6619 10.6996 22.1124 9.25962 25.6147 9.25962C29.1169 9.25962 25.6147 9.25962 25.6205 9.25962H32.5844C32.7268 9.25962 32.8314 9.16362 32.846 9.01525C32.846 9.01525 32.8983 8.70107 32.8401 8.44507L32.843 8.45089Z" fill="#1EAC4B"/>
</g>
<defs>
<clipPath id="clip0_6957_18449">
<rect width="50" height="16" fill="white"/>
</clipPath>
</defs>
</svg>
