<svg width="54" height="14" viewBox="0 0 54 14" fill="none" xmlns="http://www.w3.org/2000/svg">
<path d="M53.6772 1.67583L52.7051 0.713255H44.3843V1.35392L43.8289 0.713255H35.5081V1.31921L34.9511 0.678539H32.7608V1.03359L32.5241 0.713255H31.3217L30.6731 0H28.4829V0.713255H26.6319V1.35392L26.0748 0.713255H23.8846V1.03359L23.6479 0.713255H22.4454L21.7953 0H19.605V0.713255H17.7541V1.35392L17.1718 0.713255H14.9815V2.42065L13.2631 0.713255H10.3312L8.85099 2.195V2.71573L6.83904 0.714833H1.48016L0 2.19342V5.47723L1.88729 7.35821H0V9.54847L0.972047 10.511H3.06447V13.0374L4.03652 14H6.22678V10.511H9.29125V8.51014L11.3032 10.511H14.2351L14.9799 9.76623V13.0374L15.952 14H18.1422V13.3593L18.7245 14H27.0453V12.7013L26.2658 11.5573H27.3167L29.7705 14H34.4414L35.9231 12.5183V10.6057L34.4414 9.12399H34.4398L34.3404 9.02457H35.9231V8.70424L36.2198 9.02457H38.0771L38.672 6.86429L39.0018 8.06199L39.9739 9.02457H40.7297V13.0358L41.7018 13.9984H44.7994V13.3578L45.3548 13.9984H53.6756V12.0701L53.0271 11.4957H53.6756V7.77637L53.1896 7.39766H53.6756V5.85122L53.1896 5.41096H53.6756V3.48264L53.3521 3.22069H53.6756V1.67426L53.6772 1.67583ZM32.9234 8.16456H32.9139L32.9234 8.15509V8.16456Z" fill="black"/>
<path d="M1.60184 0.999625L0.290527 2.30936V5.35332L1.60184 6.66464H6.72087L8.03218 5.35332V2.30936L6.72087 0.998047H1.60184V0.999625ZM6.41947 5.05508H1.90008V2.61076H6.41947V5.05508Z" fill="white"/>
<path d="M10.4527 0.999625L9.14136 2.31094V7.94598L10.4527 9.25729H13.1432L14.4545 7.94598V2.30936L13.1432 0.998047H10.4527V0.999625ZM12.8449 7.64458H10.7525V2.60918H12.8449V7.64458Z" fill="white"/>
<path d="M22.0462 9.26787L23.3576 7.95655V3.86796L22.0462 2.55664H19.3558L18.0444 3.86796V7.95655L19.3558 9.26787H22.0462ZM19.654 4.16778H21.7464V7.65673H19.654V4.16778Z" fill="white"/>
<path d="M0.290527 9.25371H3.355V12.7427H4.96613V9.25371H8.0306V7.64258H0.290527V9.25371Z" fill="white"/>
<path d="M23.3576 1.00036H21.5066V0.287109H19.8954V1.00036H18.0444V1.9661H23.3576V1.00036Z" fill="white"/>
<path d="M16.882 0.998047H15.2725V12.7431H16.882V6.29854H17.4611V4.68741H16.882V0.998047Z" fill="white"/>
<path d="M19.654 9.6875H18.0444V12.7535H25.7845V11.1424H19.654V9.6875Z" fill="white"/>
<path d="M25.7847 0.998047H24.1736V9.25413H25.7847V6.29854H26.4001V4.68741H25.7847V0.998047Z" fill="white"/>
<path d="M30.9239 7.81769L32.2352 6.50637V3.86796L30.9239 2.55664H28.2334L26.9221 3.86796V6.50637L28.2334 7.81769H30.9239ZM28.5317 4.16778H30.6241V6.20655H28.5317V4.16778Z" fill="white"/>
<path d="M28.92 8.46289L27.6086 9.77421V11.4453L28.92 12.7566H33.351L34.6623 11.4453V9.77421L33.351 8.46289H28.92ZM33.0512 11.1455H29.2198V10.0724H33.0512V11.1455Z" fill="white"/>
<path d="M32.234 1.00036H30.383V0.287109H28.7735V1.00036H26.9209V1.9661H32.234V1.00036Z" fill="white"/>
<path d="M33.0509 2.55186H32.6912V4.16141H33.0509V5.10032H32.6912V6.71146H33.0509V7.77661H34.6621V0.970703H33.0509V2.55186Z" fill="white"/>
<path d="M52.4139 5.18164H44.6738V6.14895H52.4139V5.18164Z" fill="white"/>
<path d="M44.6738 4.15404H52.4155V2.80643H46.285V1.96378H52.4155V0.998047H44.6738V4.15404Z" fill="white"/>
<path d="M44.6738 12.7406H52.4155V11.3914H46.285V10.2379H52.4155V7.09766H44.6738V8.44685H50.8075V9.27056H44.6738V12.7406Z" fill="white"/>
<path d="M40.4059 1.96378V0.998047H35.7981V1.96378H37.2246L35.6277 7.76924H36.8838L38.0531 3.51969L39.2239 7.76924H40.48L38.8831 1.96378H40.4059Z" fill="white"/>
<path d="M43.5391 0.998047H42.5718V12.7431H43.5391V0.998047Z" fill="white"/>
<path d="M41.0221 3.44552H40.3467V5.05508H41.0221V12.7431H41.9878V0.998047H41.0221V3.44552Z" fill="white"/>
</svg>
