<svg xmlns="http://www.w3.org/2000/svg" width="147" height="14" viewBox="0 0 147 14" fill="none">
  <g clip-path="url(#clip0_11087_145563)">
    <path d="M0 8.91614V8.85742H3.25709V8.91614C3.25709 10.2144 3.83149 10.9124 5.13041 10.9124C6.42933 10.9124 6.96457 10.2144 6.96457 8.91614V0.265625H10.3V8.91614C10.3 12.0019 8.44625 14.0047 5.11083 14.0047C1.77541 14.0047 0 12.0019 0 8.91614Z" fill="#105AFF"/>
    <path d="M12.2422 0.265625H22.1897V3.35137H15.5776V5.5564H20.9952V8.23114H15.5776V10.6384H22.1897V13.7242H12.2422V0.265625Z" fill="#105AFF"/>
    <path d="M23.3203 7C23.3203 2.96179 26.2837 0 30.4872 0C34.0903 0 36.8121 2.18546 37.491 5.37558H33.9662C33.431 3.99254 32.1713 3.09226 30.4872 3.09226C28.2027 3.09226 26.6949 4.74278 26.6949 7.00652C26.6949 9.27027 28.1962 10.9208 30.4872 10.9208C32.1778 10.9208 33.431 10.014 33.9662 8.63747H37.491C36.8121 11.8276 34.0903 14.013 30.4872 14.013C26.2837 14.013 23.3203 11.0513 23.3203 7.01305V7Z" fill="#105AFF"/>
    <path d="M41.1839 3.35137H37.5156V0.265625H48.2072V3.35137H44.5194V13.7307H41.1839V3.35137Z" fill="#105AFF"/>
    <path d="M48.3359 7C48.3359 2.96179 51.2993 0 55.5028 0C59.7064 0 62.6698 2.96179 62.6698 7C62.6698 11.0382 59.7064 14 55.5028 14C51.2993 14 48.3359 11.0382 48.3359 7ZM59.2952 7C59.2952 4.73625 57.7939 3.08574 55.5028 3.08574C53.2118 3.08574 51.7105 4.73625 51.7105 7C51.7105 9.26375 53.2118 10.9143 55.5028 10.9143C57.7939 10.9143 59.2952 9.26375 59.2952 7Z" fill="#105AFF"/>
    <path d="M64.2422 0.265625H69.699C73.2628 0.265625 74.849 2.20318 74.849 4.87793C74.849 6.76982 74.0461 8.31595 72.3164 9.04009L75.345 13.7372H71.3895L69.0005 9.51632H67.5776V13.7372H64.2422V0.265625ZM69.7447 6.42406C71.0827 6.42406 71.4744 5.76516 71.4744 4.87793C71.4744 3.99069 71.0827 3.35137 69.7447 3.35137H67.5841V6.41754H69.7447V6.42406Z" fill="#105AFF"/>
    <path d="M80.8438 9.94222H82.3059C82.3646 11.6514 83.6244 12.6431 85.7653 12.6431C87.9062 12.6431 89.2247 11.5927 89.2247 9.94222C89.2247 8.17428 87.5146 7.86114 85.6804 7.59366C83.4938 7.28705 81.1505 6.87605 81.1505 4.01212C81.1505 1.62442 83.0043 0 85.7849 0C88.5655 0 90.3148 1.54613 90.3996 3.89469H88.9767C88.8918 2.34856 87.7235 1.36347 85.7849 1.36347C83.8463 1.36347 82.5931 2.39422 82.5931 3.9795C82.5931 5.7083 84.2836 5.99534 86.1178 6.28239C88.3044 6.63467 90.6672 7.0261 90.6672 9.9096C90.6672 12.4213 88.7287 14.0065 85.7653 14.0065C82.8019 14.0065 80.9025 12.4604 80.8438 9.94874V9.94222Z" fill="white"/>
    <path d="M95.6381 1.62257H91.0625V0.265625H101.695V1.62257H97.1198V13.7307H95.6381V1.62257Z" fill="white"/>
    <path d="M102.812 8.4399V0.265625H104.294V8.4399C104.294 11.0364 105.737 12.6412 108.459 12.6412C111.18 12.6412 112.623 11.0168 112.623 8.4399V0.265625H114.065V8.4399C114.065 11.8388 112.068 13.9982 108.485 13.9982C104.901 13.9982 102.819 11.8388 102.819 8.4399H102.812Z" fill="white"/>
    <path d="M115.977 0.265625H120.8C125.454 0.265625 127.948 2.95994 127.948 6.99815C127.948 11.0364 125.454 13.7307 120.8 13.7307H115.977V0.265625ZM120.794 12.3737C124.606 12.3737 126.459 10.2339 126.459 6.99815C126.459 3.76236 124.606 1.62257 120.794 1.62257H117.458V12.3737H120.794Z" fill="white"/>
    <path d="M129.57 0.265625H131.052V13.7307H129.57V0.265625Z" fill="white"/>
    <path d="M132.664 7C132.664 2.96179 135.627 0 139.831 0C144.035 0 146.998 2.96179 146.998 7C146.998 11.0382 144.035 14 139.831 14C135.627 14 132.664 11.0382 132.664 7ZM145.516 7C145.516 3.74464 143.186 1.35694 139.831 1.35694C136.476 1.35694 134.146 3.74464 134.146 7C134.146 10.2554 136.476 12.6431 139.831 12.6431C143.186 12.6431 145.516 10.2554 145.516 7Z" fill="white"/>
  </g>
  <defs>
    <clipPath id="clip0_11087_145563">
      <rect width="147" height="14" fill="white"/>
    </clipPath>
  </defs>
</svg>