<svg xmlns="http://www.w3.org/2000/svg" width="147" height="14" viewBox="0 0 147 14" fill="none">
  <g clip-path="url(#clip0_951_11431)">
    <path d="M0 8.91797V8.85925H3.25536V8.91797C3.25536 10.2162 3.82945 10.9142 5.12768 10.9142C6.42591 10.9142 6.96086 10.2162 6.96086 8.91797V0.267456H10.2945V8.91797C10.2945 12.0037 8.44175 14.0065 5.10811 14.0065C1.77446 14.0065 0 12.0037 0 8.91797Z" fill="#105AFF"/>
    <path d="M12.2322 0.267456H22.1744V3.3532H15.5658V5.55823H20.9805V8.23297H15.5658V10.6402H22.1744V13.726H12.2322V0.267456Z" fill="#105AFF"/>
    <path d="M23.3093 7C23.3093 2.96179 26.2711 0 30.4724 0C34.0735 0 36.794 2.18546 37.4724 5.37558H33.9496C33.4146 3.99254 32.1556 3.09226 30.4724 3.09226C28.1891 3.09226 26.6821 4.74278 26.6821 7.00652C26.6821 9.27027 28.1826 10.9208 30.4724 10.9208C32.1621 10.9208 33.4146 10.014 33.9496 8.63747H37.4724C36.794 11.8276 34.0735 14.013 30.4724 14.013C26.2711 14.013 23.3093 11.0513 23.3093 7.01305V7Z" fill="#105AFF"/>
    <path d="M41.1649 3.3532H37.4985V0.267456H48.1845V3.3532H44.4985V13.7325H41.1649V3.3532Z" fill="#105AFF"/>
    <path d="M48.3086 7C48.3086 2.96179 51.2704 0 55.4717 0C59.673 0 62.6348 2.96179 62.6348 7C62.6348 11.0382 59.673 14 55.4717 14C51.2704 14 48.3086 11.0382 48.3086 7ZM59.262 7C59.262 4.73625 57.7615 3.08574 55.4717 3.08574C53.1818 3.08574 51.6814 4.73625 51.6814 7C51.6814 9.26375 53.1818 10.9143 55.4717 10.9143C57.7615 10.9143 59.262 9.26375 59.262 7Z" fill="#105AFF"/>
    <path d="M64.2068 0.267456H69.6607C73.2226 0.267456 74.8079 2.20501 74.8079 4.87976C74.8079 6.77165 74.0055 8.31778 72.2767 9.04192L75.3037 13.739H71.3503L68.9626 9.51816H67.5404V13.739H64.2068V0.267456ZM69.7063 6.42589C71.0437 6.42589 71.4351 5.76699 71.4351 4.87976C71.4351 3.99253 71.0437 3.3532 69.7063 3.3532H67.547V6.41937H69.7063V6.42589Z" fill="#105AFF"/>
    <path d="M80.8035 9.94222H82.2648C82.3235 11.6514 83.5826 12.6431 85.7224 12.6431C87.8622 12.6431 89.18 11.5927 89.18 9.94222C89.18 8.17428 87.4708 7.86114 85.6376 7.59366C83.4521 7.28705 81.1101 6.87605 81.1101 4.01212C81.1101 1.62442 82.9628 0 85.742 0C88.5211 0 90.2695 1.54613 90.3543 3.89469H88.9321C88.8473 2.34856 87.6795 1.36347 85.742 1.36347C83.8044 1.36347 82.5518 2.39422 82.5518 3.9795C82.5518 5.70829 84.2415 5.99534 86.0747 6.28239C88.2601 6.63467 90.6217 7.02609 90.6217 9.9096C90.6217 12.4212 88.6842 14.0065 85.7224 14.0065C82.7606 14.0065 80.8622 12.4604 80.8035 9.94874V9.94222Z" fill="#1C1C1C"/>
    <path d="M95.5861 1.6244H91.0129V0.267456H101.64V1.6244H97.067V13.7325H95.5861V1.6244Z" fill="#1C1C1C"/>
    <path d="M102.756 8.44173V0.267456H104.237V8.44173C104.237 11.0382 105.679 12.643 108.399 12.643C111.119 12.643 112.561 11.0186 112.561 8.44173V0.267456H114.003V8.44173C114.003 11.8406 112.007 14 108.425 14C104.843 14 102.762 11.8406 102.762 8.44173H102.756Z" fill="#1C1C1C"/>
    <path d="M115.914 0.267456H120.735C125.387 0.267456 127.879 2.96177 127.879 6.99998C127.879 11.0382 125.387 13.7325 120.735 13.7325H115.914V0.267456ZM120.729 12.3756C124.539 12.3756 126.391 10.2358 126.391 6.99998C126.391 3.76419 124.539 1.6244 120.729 1.6244H117.395V12.3756H120.729Z" fill="#1C1C1C"/>
    <path d="M129.503 0.267456H130.984V13.7325H129.503V0.267456Z" fill="#1C1C1C"/>
    <path d="M132.595 7C132.595 2.96179 135.557 0 139.759 0C143.96 0 146.922 2.96179 146.922 7C146.922 11.0382 143.96 14 139.759 14C135.557 14 132.595 11.0382 132.595 7ZM145.441 7C145.441 3.74464 143.112 1.35694 139.759 1.35694C136.405 1.35694 134.076 3.74464 134.076 7C134.076 10.2554 136.405 12.6431 139.759 12.6431C143.112 12.6431 145.441 10.2554 145.441 7Z" fill="#1C1C1C"/>
  </g>
  <defs>
    <clipPath id="clip0_951_11431">
      <rect width="146.922" height="14" fill="white"/>
    </clipPath>
  </defs>
</svg>