<svg width="48" height="48" viewBox="0 0 48 48" fill="none" xmlns="http://www.w3.org/2000/svg">
<g clip-path="url(#clip0_4903_22337)">
<path d="M35.9481 46.1567C20.7967 52.5312 6.2041 41.446 6.2041 27.0078H9.37971C9.37971 39.2923 21.8332 48.7086 34.7236 43.1966C38.5344 41.5685 41.5931 38.4961 43.214 34.6684C48.7065 21.7204 39.3321 9.21128 27.1022 9.21128V6.02148C41.4763 6.02148 52.5121 20.6792 46.166 35.8984C44.2403 40.5223 40.5464 44.2275 35.9481 46.1618V46.1567Z" fill="#105AFF"/>
<path d="M38.8847 25.1815H30.496L36.4255 19.2255L34.1797 16.9697L28.2502 22.9257V14.4995H25.0695V22.9257L2.24579 0L0 2.25582L22.8238 25.1815H14.4351V28.3764H22.8238L16.8943 34.3324L19.14 36.5882L25.0695 30.6322V39.0584H28.2502V30.6322L34.1797 36.5882L36.4255 34.3324L30.496 28.3764H38.8847V25.1815Z" fill="url(#paint0_linear_4903_22337)"/>
</g>
<defs>
<linearGradient id="paint0_linear_4903_22337" x1="6.8644" y1="6.89506" x2="34.4801" y2="34.3931" gradientUnits="userSpaceOnUse">
<stop stop-color="#2361FF" stop-opacity="0"/>
<stop offset="1" stop-color="#2361FF"/>
</linearGradient>
<clipPath id="clip0_4903_22337">
<rect width="48" height="48" fill="white"/>
</clipPath>
</defs>
</svg>
