<svg width="24" height="24" viewBox="0 0 24 24" fill="none" xmlns="http://www.w3.org/2000/svg">
<g clip-path="url(#clip0_5709_35106)">
<path d="M12.0051 -1.2002C6.49421 -1.2002 4.88249 -1.19451 4.5692 -1.16851C3.43828 -1.07448 2.73454 -0.896367 1.96787 -0.51455C1.37703 -0.221079 0.911053 0.119104 0.451171 0.595969C-0.386364 1.46562 -0.893961 2.53552 -1.07771 3.80729C-1.16705 4.4247 -1.19304 4.55062 -1.19832 7.70426C-1.20035 8.75548 -1.19832 10.139 -1.19832 11.9946C-1.19832 17.5025 -1.19223 19.1131 -1.16583 19.4258C-1.07446 20.5266 -0.90188 21.2192 -0.53641 21.9767C0.162043 23.4268 1.49601 24.5154 3.06753 24.9216C3.61167 25.0617 4.21267 25.1389 4.98421 25.1754C5.31111 25.1897 8.64297 25.1998 11.9769 25.1998C15.3108 25.1998 18.6447 25.1957 18.9634 25.1795C19.8568 25.1375 20.3756 25.0678 20.9492 24.9195C21.7284 24.7197 22.4546 24.352 23.0771 23.8423C23.6995 23.3326 24.2033 22.6932 24.5531 21.9686C24.9115 21.2293 25.0932 20.5104 25.1754 19.4671C25.1933 19.2396 25.2008 15.613 25.2008 11.9912C25.2008 8.36879 25.1927 4.74884 25.1748 4.52137C25.0916 3.46122 24.9098 2.74836 24.5399 1.99488C24.2363 1.37808 23.8993 0.917467 23.41 0.446492C22.5369 -0.387819 21.4689 -0.895554 20.1961 -1.07915C19.5795 -1.16831 19.4566 -1.19471 16.3014 -1.2002H12.0051Z" fill="url(#paint0_radial_5709_35106)"/>
<path d="M12.0051 -1.2002C6.49421 -1.2002 4.88249 -1.19451 4.5692 -1.16851C3.43828 -1.07448 2.73454 -0.896367 1.96787 -0.51455C1.37703 -0.221079 0.911053 0.119104 0.451171 0.595969C-0.386364 1.46562 -0.893961 2.53552 -1.07771 3.80729C-1.16705 4.4247 -1.19304 4.55062 -1.19832 7.70426C-1.20035 8.75548 -1.19832 10.139 -1.19832 11.9946C-1.19832 17.5025 -1.19223 19.1131 -1.16583 19.4258C-1.07446 20.5266 -0.90188 21.2192 -0.53641 21.9767C0.162043 23.4268 1.49601 24.5154 3.06753 24.9216C3.61167 25.0617 4.21267 25.1389 4.98421 25.1754C5.31111 25.1897 8.64297 25.1998 11.9769 25.1998C15.3108 25.1998 18.6447 25.1957 18.9634 25.1795C19.8568 25.1375 20.3756 25.0678 20.9492 24.9195C21.7284 24.7197 22.4546 24.352 23.0771 23.8423C23.6995 23.3326 24.2033 22.6932 24.5531 21.9686C24.9115 21.2293 25.0932 20.5104 25.1754 19.4671C25.1933 19.2396 25.2008 15.613 25.2008 11.9912C25.2008 8.36879 25.1927 4.74884 25.1748 4.52137C25.0916 3.46122 24.9098 2.74836 24.5399 1.99488C24.2363 1.37808 23.8993 0.917467 23.41 0.446492C22.5369 -0.387819 21.4689 -0.895554 20.1961 -1.07915C19.5795 -1.16831 19.4566 -1.19471 16.3014 -1.2002H12.0051Z" fill="url(#paint1_radial_5709_35106)"/>
<path d="M12.0011 3.13867C9.59486 3.13867 9.29288 3.1492 8.34783 3.19222C7.40462 3.23542 6.76081 3.38479 6.19747 3.60394C5.61474 3.8303 5.12044 4.13309 4.62798 4.62587C4.13515 5.11847 3.83243 5.61291 3.6054 6.19561C3.38575 6.75929 3.23624 7.40346 3.19378 8.34656C3.1517 9.29187 3.14062 9.59411 3.14062 12.001C3.14062 14.4078 3.15133 14.7089 3.19415 15.6543C3.23753 16.5977 3.38686 17.2417 3.60577 17.8052C3.83225 18.3881 4.13496 18.8825 4.62761 19.3751C5.11988 19.8681 5.61419 20.1716 6.19654 20.398C6.76025 20.6171 7.40425 20.7665 8.34728 20.8097C9.29233 20.8527 9.59412 20.8632 12.0001 20.8632C14.4065 20.8632 14.7076 20.8527 15.6526 20.8097C16.5958 20.7665 17.2404 20.6171 17.8041 20.398C18.3866 20.1716 18.8802 19.8681 19.3725 19.3751C19.8653 18.8825 20.168 18.3881 20.395 17.8054C20.6128 17.2417 20.7624 16.5975 20.8067 15.6544C20.8491 14.7091 20.8602 14.4078 20.8602 12.001C20.8602 9.59411 20.8491 9.29205 20.8067 8.34674C20.7624 7.40328 20.6128 6.75929 20.395 6.19579C20.168 5.61291 19.8653 5.11847 19.3725 4.62587C18.8796 4.13291 18.3868 3.83012 17.8035 3.60394C17.2387 3.38479 16.5945 3.23542 15.6513 3.19222C14.7063 3.1492 14.4054 3.13867 11.9985 3.13867H12.0011ZM11.2062 4.73573C11.4421 4.73536 11.7054 4.73573 12.0011 4.73573C14.3666 4.73573 14.647 4.74422 15.5812 4.78669C16.445 4.8262 16.9138 4.97058 17.2262 5.09188C17.6396 5.25251 17.9344 5.44453 18.2443 5.75471C18.5544 6.06489 18.7464 6.3603 18.9073 6.77387C19.0286 7.0859 19.1731 7.55486 19.2124 8.41893C19.2549 9.35317 19.2641 9.6338 19.2641 11.9989C19.2641 14.364 19.2549 14.6447 19.2124 15.5789C19.1729 16.443 19.0286 16.912 18.9073 17.224C18.7467 17.6376 18.5544 17.932 18.2443 18.242C17.9342 18.5522 17.6398 18.7442 17.2262 18.9049C16.9142 19.0267 16.445 19.1707 15.5812 19.2102C14.6472 19.2527 14.3666 19.2619 12.0011 19.2619C9.63528 19.2619 9.3549 19.2527 8.42092 19.2102C7.55709 19.1704 7.08825 19.026 6.77576 18.9047C6.3623 18.7441 6.06697 18.552 5.75687 18.2419C5.44678 17.9317 5.25481 17.637 5.09386 17.2232C4.97259 16.9112 4.82806 16.4423 4.78875 15.5782C4.74629 14.644 4.7378 14.3633 4.7378 11.9967C4.7378 9.63011 4.74629 9.35095 4.78875 8.41672C4.82825 7.55265 4.97259 7.08368 5.09386 6.77129C5.25444 6.35771 5.44678 6.0623 5.75687 5.75212C6.06697 5.44194 6.3623 5.24993 6.77576 5.08893C7.08807 4.96707 7.55709 4.82306 8.42092 4.78336C9.23825 4.74644 9.55499 4.73536 11.2062 4.73351V4.73573ZM16.7304 6.20724C16.5201 6.20724 16.3145 6.26962 16.1397 6.38649C15.9648 6.50336 15.8285 6.66948 15.7481 6.86382C15.6676 7.05817 15.6466 7.27202 15.6876 7.47832C15.7287 7.68463 15.83 7.87412 15.9787 8.02283C16.1274 8.17155 16.3169 8.27281 16.5232 8.3138C16.7294 8.35479 16.9432 8.33368 17.1375 8.25313C17.3318 8.17258 17.4978 8.03621 17.6146 7.86128C17.7313 7.68634 17.7936 7.48069 17.7936 7.27034C17.7936 6.68322 17.3173 6.20687 16.7304 6.20687V6.20724ZM12.0011 7.4498C9.48835 7.4498 7.45114 9.48758 7.45114 12.001C7.45114 14.5143 9.48835 16.5512 12.0011 16.5512C14.5137 16.5512 16.5504 14.5143 16.5504 12.001C16.5504 9.48758 14.5136 7.4498 12.0009 7.4498H12.0011ZM12.0011 9.04686C13.632 9.04686 14.9543 10.3694 14.9543 12.001C14.9543 13.6324 13.632 14.9551 12.0011 14.9551C10.3699 14.9551 9.04776 13.6324 9.04776 12.001C9.04776 10.3694 10.3699 9.04686 12.0011 9.04686Z" fill="white"/>
</g>
<defs>
<radialGradient id="paint0_radial_5709_35106" cx="0" cy="0" r="1" gradientUnits="userSpaceOnUse" gradientTransform="translate(5.81332 27.2332) rotate(-90) scale(26.1644 24.3349)">
<stop stop-color="#FFDD55"/>
<stop offset="0.1" stop-color="#FFDD55"/>
<stop offset="0.5" stop-color="#FF543E"/>
<stop offset="1" stop-color="#C837AB"/>
</radialGradient>
<radialGradient id="paint1_radial_5709_35106" cx="0" cy="0" r="1" gradientTransform="matrix(2.29558 11.4681 -47.2709 9.46758 -5.62136 0.701616)" gradientUnits="userSpaceOnUse">
<stop stop-color="#3771C8"/>
<stop offset="0.128" stop-color="#3771C8"/>
<stop offset="1" stop-color="#6600FF" stop-opacity="0"/>
</radialGradient>
<clipPath id="clip0_5709_35106">
<rect width="24" height="24" rx="6" fill="white"/>
</clipPath>
</defs>
</svg>
