<svg xmlns="http://www.w3.org/2000/svg" width="28" height="26" viewBox="0 0 28 26" fill="none">
  <mask id="path-1-outside-1_1547_8728" maskUnits="userSpaceOnUse" x="0.25" y="0.499588" width="28" height="26" fill="black">
    <rect fill="white" x="0.25" y="0.499588" width="28" height="26"/>
    <path d="M21.2496 14V18.7747C21.2496 21.1738 20.4546 22.5181 20.4209 22.5856C20.3585 22.7102 20.2627 22.815 20.1442 22.8882C20.0256 22.9614 19.889 23.0001 19.7496 23H6.99965C6.8689 23 6.74042 22.9659 6.62695 22.9009C6.51348 22.8359 6.41896 22.7424 6.35277 22.6297L3.45121 17C3.3496 16.8241 3.28476 16.6295 3.26063 16.4278C3.23649 16.2262 3.25357 16.0217 3.31081 15.8268C3.36805 15.6319 3.46427 15.4507 3.59364 15.2942C3.723 15.1376 3.88282 15.0089 4.0634 14.9159C4.78152 14.5409 5.66652 14.8372 6.06965 15.5366L8.0384 18.9528C8.09315 19.0512 8.17577 19.1312 8.27585 19.1827C8.37593 19.2343 8.48902 19.2551 8.6009 19.2425H8.61215C8.7923 19.2115 8.95548 19.1172 9.07234 18.9767C9.1892 18.8361 9.25207 18.6584 9.24965 18.4756V7.25001C9.24941 7.0468 9.29047 6.84566 9.37032 6.6588C9.45018 6.47194 9.56717 6.30326 9.7142 6.16298C9.86122 6.02271 10.0352 5.91377 10.2256 5.84278C10.416 5.77179 10.6189 5.74023 10.8218 5.75001C11.629 5.7875 12.2496 6.48313 12.2496 7.29032V14C12.2494 14.1028 12.2703 14.2046 12.3111 14.299C12.3519 14.3934 12.4116 14.4784 12.4866 14.5487C12.5616 14.619 12.6502 14.6732 12.747 14.7078C12.8439 14.7425 12.9467 14.7568 13.0493 14.75C13.2422 14.7334 13.4216 14.6445 13.5516 14.501C13.6815 14.3575 13.7523 14.1701 13.7496 13.9766V12.5C13.7494 12.2968 13.7905 12.0957 13.8703 11.9088C13.9502 11.7219 14.0672 11.5533 14.2142 11.413C14.3612 11.2727 14.5352 11.1638 14.7256 11.0928C14.916 11.0218 15.1189 10.9902 15.3218 11C16.129 11.0375 16.7496 11.7331 16.7496 12.5403V14.75C16.7494 14.8528 16.7703 14.9546 16.8111 15.049C16.8519 15.1434 16.9116 15.2284 16.9866 15.2987C17.0616 15.369 17.1502 15.4232 17.247 15.4578C17.3439 15.4925 17.4467 15.5068 17.5493 15.5C17.7421 15.4832 17.9214 15.3942 18.0513 15.2507C18.1812 15.1073 18.252 14.9201 18.2496 14.7266V14.0441C18.2496 13.2369 18.8703 12.5441 19.6775 12.5038C19.8801 12.494 20.0826 12.5254 20.2728 12.5962C20.463 12.667 20.6368 12.7756 20.7837 12.9154C20.9307 13.0553 21.0478 13.2235 21.1279 13.41C21.2079 13.5964 21.2494 13.7971 21.2496 14ZM24.2496 6.50001H19.31L21.0303 4.78063C21.1 4.71095 21.1552 4.62822 21.1929 4.53718C21.2307 4.44613 21.2501 4.34855 21.2501 4.25001C21.2501 4.15146 21.2307 4.05388 21.1929 3.96283C21.1552 3.87179 21.1 3.78906 21.0303 3.71938C20.9606 3.6497 20.8779 3.59442 20.7868 3.55671C20.6958 3.519 20.5982 3.49959 20.4996 3.49959C20.4011 3.49959 20.3035 3.519 20.2125 3.55671C20.1214 3.59442 20.0387 3.6497 19.969 3.71938L16.969 6.71938C16.8993 6.78903 16.844 6.87175 16.8062 6.9628C16.7685 7.05385 16.7491 7.15144 16.7491 7.25001C16.7491 7.34857 16.7685 7.44616 16.8062 7.53721C16.844 7.62826 16.8993 7.71098 16.969 7.78063L19.969 10.7806C20.0387 10.8503 20.1214 10.9056 20.2125 10.9433C20.3035 10.981 20.4011 11.0004 20.4996 11.0004C20.5982 11.0004 20.6958 10.981 20.7868 10.9433C20.8779 10.9056 20.9606 10.8503 21.0303 10.7806C21.1 10.7109 21.1552 10.6282 21.1929 10.5372C21.2307 10.4461 21.2501 10.3486 21.2501 10.25C21.2501 10.1515 21.2307 10.0539 21.1929 9.96283C21.1552 9.87179 21.1 9.78906 21.0303 9.71938L19.31 8H24.2496C24.4486 8 24.6393 7.92099 24.78 7.78033C24.9206 7.63968 24.9996 7.44892 24.9996 7.25001C24.9996 7.05109 24.9206 6.86033 24.78 6.71968C24.6393 6.57902 24.4486 6.50001 24.2496 6.50001Z"/>
  </mask>
  <path d="M21.2496 14V18.7747C21.2496 21.1738 20.4546 22.5181 20.4209 22.5856C20.3585 22.7102 20.2627 22.815 20.1442 22.8882C20.0256 22.9614 19.889 23.0001 19.7496 23H6.99965C6.8689 23 6.74042 22.9659 6.62695 22.9009C6.51348 22.8359 6.41896 22.7424 6.35277 22.6297L3.45121 17C3.3496 16.8241 3.28476 16.6295 3.26063 16.4278C3.23649 16.2262 3.25357 16.0217 3.31081 15.8268C3.36805 15.6319 3.46427 15.4507 3.59364 15.2942C3.723 15.1376 3.88282 15.0089 4.0634 14.9159C4.78152 14.5409 5.66652 14.8372 6.06965 15.5366L8.0384 18.9528C8.09315 19.0512 8.17577 19.1312 8.27585 19.1827C8.37593 19.2343 8.48902 19.2551 8.6009 19.2425H8.61215C8.7923 19.2115 8.95548 19.1172 9.07234 18.9767C9.1892 18.8361 9.25207 18.6584 9.24965 18.4756V7.25001C9.24941 7.0468 9.29047 6.84566 9.37032 6.6588C9.45018 6.47194 9.56717 6.30326 9.7142 6.16298C9.86122 6.02271 10.0352 5.91377 10.2256 5.84278C10.416 5.77179 10.6189 5.74023 10.8218 5.75001C11.629 5.7875 12.2496 6.48313 12.2496 7.29032V14C12.2494 14.1028 12.2703 14.2046 12.3111 14.299C12.3519 14.3934 12.4116 14.4784 12.4866 14.5487C12.5616 14.619 12.6502 14.6732 12.747 14.7078C12.8439 14.7425 12.9467 14.7568 13.0493 14.75C13.2422 14.7334 13.4216 14.6445 13.5516 14.501C13.6815 14.3575 13.7523 14.1701 13.7496 13.9766V12.5C13.7494 12.2968 13.7905 12.0957 13.8703 11.9088C13.9502 11.7219 14.0672 11.5533 14.2142 11.413C14.3612 11.2727 14.5352 11.1638 14.7256 11.0928C14.916 11.0218 15.1189 10.9902 15.3218 11C16.129 11.0375 16.7496 11.7331 16.7496 12.5403V14.75C16.7494 14.8528 16.7703 14.9546 16.8111 15.049C16.8519 15.1434 16.9116 15.2284 16.9866 15.2987C17.0616 15.369 17.1502 15.4232 17.247 15.4578C17.3439 15.4925 17.4467 15.5068 17.5493 15.5C17.7421 15.4832 17.9214 15.3942 18.0513 15.2507C18.1812 15.1073 18.252 14.9201 18.2496 14.7266V14.0441C18.2496 13.2369 18.8703 12.5441 19.6775 12.5038C19.8801 12.494 20.0826 12.5254 20.2728 12.5962C20.463 12.667 20.6368 12.7756 20.7837 12.9154C20.9307 13.0553 21.0478 13.2235 21.1279 13.41C21.2079 13.5964 21.2494 13.7971 21.2496 14ZM24.2496 6.50001H19.31L21.0303 4.78063C21.1 4.71095 21.1552 4.62822 21.1929 4.53718C21.2307 4.44613 21.2501 4.34855 21.2501 4.25001C21.2501 4.15146 21.2307 4.05388 21.1929 3.96283C21.1552 3.87179 21.1 3.78906 21.0303 3.71938C20.9606 3.6497 20.8779 3.59442 20.7868 3.55671C20.6958 3.519 20.5982 3.49959 20.4996 3.49959C20.4011 3.49959 20.3035 3.519 20.2125 3.55671C20.1214 3.59442 20.0387 3.6497 19.969 3.71938L16.969 6.71938C16.8993 6.78903 16.844 6.87175 16.8062 6.9628C16.7685 7.05385 16.7491 7.15144 16.7491 7.25001C16.7491 7.34857 16.7685 7.44616 16.8062 7.53721C16.844 7.62826 16.8993 7.71098 16.969 7.78063L19.969 10.7806C20.0387 10.8503 20.1214 10.9056 20.2125 10.9433C20.3035 10.981 20.4011 11.0004 20.4996 11.0004C20.5982 11.0004 20.6958 10.981 20.7868 10.9433C20.8779 10.9056 20.9606 10.8503 21.0303 10.7806C21.1 10.7109 21.1552 10.6282 21.1929 10.5372C21.2307 10.4461 21.2501 10.3486 21.2501 10.25C21.2501 10.1515 21.2307 10.0539 21.1929 9.96283C21.1552 9.87179 21.1 9.78906 21.0303 9.71938L19.31 8H24.2496C24.4486 8 24.6393 7.92099 24.78 7.78033C24.9206 7.63968 24.9996 7.44892 24.9996 7.25001C24.9996 7.05109 24.9206 6.86033 24.78 6.71968C24.6393 6.57902 24.4486 6.50001 24.2496 6.50001Z" fill="white"/>
  <path d="M21.2496 14H24.2497L24.2496 13.996L21.2496 14ZM20.4209 22.5856L23.1038 23.9281L23.1042 23.9273L20.4209 22.5856ZM19.7496 23L19.7518 20H19.7496V23ZM6.99965 23V20H6.99931L6.99965 23ZM6.35277 22.6297L3.68612 24.0041L3.72388 24.0774L3.76561 24.1484L6.35277 22.6297ZM3.45121 17L6.11786 15.6256L6.08484 15.5615L6.04879 15.4991L3.45121 17ZM4.0634 14.9159L5.4366 17.5832L5.44434 17.5792L5.45204 17.5752L4.0634 14.9159ZM6.06965 15.5366L8.66892 14.0386L8.66878 14.0384L6.06965 15.5366ZM8.0384 18.9528L10.6596 17.4937L10.6488 17.4742L10.6377 17.4549L8.0384 18.9528ZM8.6009 19.2425V16.2425H8.43317L8.26648 16.2612L8.6009 19.2425ZM8.61215 19.2425V22.2425H8.86845L9.12104 22.199L8.61215 19.2425ZM9.24965 18.4756H6.24965V18.4955L6.24991 18.5154L9.24965 18.4756ZM9.24965 7.25001H12.2497L12.2496 7.24653L9.24965 7.25001ZM10.8218 5.75001L10.6775 8.74653L10.6826 8.74677L10.8218 5.75001ZM12.2496 14L15.2496 14.0066V14H12.2496ZM13.0493 14.75L13.2481 17.7434L13.2771 17.7415L13.3061 17.739L13.0493 14.75ZM13.7496 13.9766H10.7496V13.9968L10.7499 14.017L13.7496 13.9766ZM13.7496 12.5H16.7497L16.7496 12.4965L13.7496 12.5ZM15.3218 11L15.1775 13.9965L15.1826 13.9968L15.3218 11ZM16.7496 14.75L19.7496 14.7566V14.75H16.7496ZM17.5493 15.5L17.7481 18.4934L17.7788 18.4914L17.8095 18.4887L17.5493 15.5ZM18.2496 14.7266H15.2496V14.7451L15.2499 14.7635L18.2496 14.7266ZM19.6775 12.5038L19.5331 9.50723L19.5278 9.50749L19.6775 12.5038ZM19.31 6.50001L17.1892 4.37811L12.0645 9.5H19.31V6.50001ZM21.0303 4.78063L23.151 6.90253L23.1516 6.90195L21.0303 4.78063ZM21.2501 4.25001L24.2501 4.25001L21.2501 4.25001ZM20.4996 3.49959V6.49959V3.49959ZM19.969 3.71938L22.0903 5.8407V5.8407L19.969 3.71938ZM16.969 6.71938L19.0892 8.84188L19.0903 8.8407L16.969 6.71938ZM16.969 7.78063L19.0903 5.65931L19.0892 5.65813L16.969 7.78063ZM19.969 10.7806L17.8477 12.902L19.969 10.7806ZM21.2501 10.25H24.2501H21.2501ZM21.0303 9.71938L23.1516 7.59806L23.151 7.59748L21.0303 9.71938ZM19.31 8V5.00001H12.0645L17.1892 10.1219L19.31 8ZM18.2496 14V18.7747H24.2496V14H18.2496ZM18.2496 18.7747C18.2496 19.6383 18.1072 20.2702 17.9865 20.6532C17.9259 20.8458 17.8696 20.9788 17.8373 21.0494C17.7725 21.1908 17.8515 21.0163 17.7376 21.244L23.1042 23.9273C23.0876 23.9604 23.4197 23.3753 23.7094 22.4557C23.9946 21.55 24.2496 20.3102 24.2496 18.7747H18.2496ZM17.738 21.2431C17.9251 20.8693 18.2126 20.555 18.5683 20.3354L21.72 25.441C22.3128 25.075 22.792 24.5512 23.1038 23.9281L17.738 21.2431ZM18.5683 20.3354C18.924 20.1159 19.3338 19.9997 19.7518 20L19.7475 26C20.4442 26.0005 21.1272 25.8069 21.72 25.441L18.5683 20.3354ZM19.7496 20H6.99965V26H19.7496V20ZM6.99931 20C7.39156 20 7.777 20.1025 8.1174 20.2973L5.1365 25.5045C5.70384 25.8292 6.34624 26.0001 6.99999 26L6.99931 20ZM8.1174 20.2973C8.4578 20.4922 8.74135 20.7727 8.93993 21.1109L3.76561 24.1484C4.09657 24.7122 4.56916 25.1797 5.1365 25.5045L8.1174 20.2973ZM9.01942 21.2553L6.11786 15.6256L0.78456 18.3744L3.68612 24.0041L9.01942 21.2553ZM6.04879 15.4991C6.1504 15.675 6.21524 15.8697 6.23937 16.0713L0.281883 16.7843C0.354287 17.3893 0.5488 17.9733 0.85363 18.5009L6.04879 15.4991ZM6.23937 16.0713C6.26351 16.273 6.24644 16.4775 6.18919 16.6723L0.432423 14.9813C0.260695 15.5659 0.20948 16.1793 0.281883 16.7843L6.23937 16.0713ZM6.18919 16.6723C6.13195 16.8672 6.03573 17.0484 5.90636 17.205L1.28091 13.3833C0.89281 13.853 0.604149 14.3967 0.432423 14.9813L6.18919 16.6723ZM5.90636 17.205C5.77699 17.3616 5.61717 17.4902 5.4366 17.5832L2.69019 12.2487C2.14847 12.5276 1.66902 12.9136 1.28091 13.3833L5.90636 17.205ZM5.45204 17.5752C4.6293 18.0048 3.80397 17.6132 3.47051 17.0347L8.66878 14.0384C7.52908 12.0612 4.93375 11.0771 2.67475 12.2567L5.45204 17.5752ZM3.47038 17.0345L5.43913 20.4508L10.6377 17.4549L8.66892 14.0386L3.47038 17.0345ZM5.41715 20.412C5.75962 21.0272 6.27632 21.5274 6.9023 21.8498L9.6494 16.5156C10.0752 16.7349 10.4267 17.0752 10.6596 17.4937L5.41715 20.412ZM6.9023 21.8498C7.52829 22.1722 8.2356 22.3023 8.93532 22.2238L8.26648 16.2612C8.74244 16.2078 9.22358 16.2963 9.6494 16.5156L6.9023 21.8498ZM8.6009 22.2425H8.61215V16.2425H8.6009V22.2425ZM9.12104 22.199C10.0051 22.0469 10.8059 21.5843 11.3793 20.8944L6.76537 17.0589C7.10511 16.6502 7.57951 16.3761 8.10325 16.286L9.12104 22.199ZM11.3793 20.8944C11.9528 20.2046 12.2613 19.3328 12.2494 18.4358L6.24991 18.5154C6.24286 17.984 6.42564 17.4676 6.76537 17.0589L11.3793 20.8944ZM12.2496 18.4756V7.25001H6.24965V18.4756H12.2496ZM12.2496 7.24653C12.2499 7.44973 12.2088 7.65087 12.129 7.83773L6.61168 5.47987C6.37211 6.04046 6.24894 6.64387 6.24965 7.25348L12.2496 7.24653ZM12.129 7.83773C12.0491 8.02459 11.9321 8.19328 11.7851 8.33355L7.64329 3.99242C7.20222 4.41324 6.85125 4.91929 6.61168 5.47987L12.129 7.83773ZM11.7851 8.33355C11.6381 8.47382 11.4641 8.58276 11.2737 8.65375L9.17756 3.03181C8.60635 3.24478 8.08436 3.5716 7.64329 3.99242L11.7851 8.33355ZM11.2737 8.65375C11.0833 8.72474 10.8804 8.75631 10.6775 8.74653L10.9662 2.75348C10.3573 2.72414 9.74877 2.81883 9.17756 3.03181L11.2737 8.65375ZM10.6826 8.74677C9.77666 8.70468 9.24965 7.97115 9.24965 7.29032H15.2496C15.2496 4.99511 13.4814 2.87033 10.9611 2.75324L10.6826 8.74677ZM9.24965 7.29032V14H15.2496V7.29032H9.24965ZM9.24966 13.9934C9.24853 14.5075 9.35311 15.0163 9.5569 15.4883L15.0653 13.1097C15.1876 13.3929 15.2503 13.6982 15.2496 14.0066L9.24966 13.9934ZM9.5569 15.4883C9.7607 15.9602 10.0594 16.3852 10.4343 16.7369L14.5388 12.3605C14.7638 12.5715 14.943 12.8265 15.0653 13.1097L9.5569 15.4883ZM10.4343 16.7369C10.8093 17.0886 11.2526 17.3594 11.7366 17.5326L13.7575 11.8831C14.0479 11.987 14.3138 12.1495 14.5388 12.3605L10.4343 16.7369ZM11.7366 17.5326C12.2207 17.7057 12.7351 17.7775 13.2481 17.7434L12.8506 11.7566C13.1583 11.7362 13.467 11.7792 13.7575 11.8831L11.7366 17.5326ZM13.3061 17.739C14.2544 17.6575 15.1366 17.2201 15.7754 16.5146L11.3277 12.4874C11.7067 12.0689 12.23 11.8093 12.7926 11.761L13.3061 17.739ZM15.7754 16.5146C16.4142 15.8091 16.7622 14.8878 16.7494 13.9362L10.7499 14.017C10.7423 13.4524 10.9488 12.9059 11.3277 12.4874L15.7754 16.5146ZM16.7496 13.9766V12.5H10.7496V13.9766H16.7496ZM16.7496 12.4965C16.7499 12.6997 16.7088 12.9009 16.629 13.0877L11.1117 10.7299C10.8721 11.2904 10.7489 11.8939 10.7497 12.5035L16.7496 12.4965ZM16.629 13.0877C16.5491 13.2746 16.4321 13.4433 16.2851 13.5835L12.1433 9.24242C11.7022 9.66324 11.3512 10.1693 11.1117 10.7299L16.629 13.0877ZM16.2851 13.5835C16.1381 13.7238 15.9641 13.8328 15.7737 13.9038L13.6776 8.28181C13.1063 8.49478 12.5844 8.82159 12.1433 9.24242L16.2851 13.5835ZM15.7737 13.9038C15.5833 13.9747 15.3804 14.0063 15.1775 13.9965L15.4662 8.00348C14.8573 7.97414 14.2488 8.06883 13.6776 8.28181L15.7737 13.9038ZM15.1826 13.9968C14.2767 13.9547 13.7496 13.2211 13.7496 12.5403H19.7496C19.7496 10.2451 17.9814 8.12033 15.4611 8.00324L15.1826 13.9968ZM13.7496 12.5403V14.75H19.7496V12.5403H13.7496ZM13.7497 14.7434C13.7485 15.2575 13.8531 15.7663 14.0569 16.2383L19.5653 13.8597C19.6876 14.1428 19.7503 14.4481 19.7496 14.7566L13.7497 14.7434ZM14.0569 16.2383C14.2607 16.7102 14.5593 17.1352 14.9343 17.4869L19.0388 13.1105C19.2638 13.3215 19.443 13.5765 19.5653 13.8597L14.0569 16.2383ZM14.9343 17.4869C15.3093 17.8386 15.7526 18.1094 16.2366 18.2826L18.2575 12.6331C18.5479 12.737 18.8139 12.8995 19.0388 13.1105L14.9343 17.4869ZM16.2366 18.2826C16.7207 18.4557 17.2351 18.5275 17.7481 18.4934L17.3506 12.5066C17.6584 12.4862 17.967 12.5292 18.2575 12.6331L16.2366 18.2826ZM17.8095 18.4887C18.7564 18.4063 19.6372 17.9689 20.2751 17.2643L15.8275 13.2372C16.2057 12.8195 16.7278 12.5602 17.2892 12.5113L17.8095 18.4887ZM20.2751 17.2643C20.9131 16.5597 21.2611 15.64 21.2494 14.6896L15.2499 14.7635C15.2429 14.2001 15.4493 13.6549 15.8275 13.2372L20.2751 17.2643ZM21.2496 14.7266V14.0441H15.2496V14.7266H21.2496ZM21.2496 14.0441C21.2496 14.7344 20.7158 15.4556 19.8271 15.5L19.5278 9.50749C17.0248 9.6325 15.2496 11.7394 15.2496 14.0441H21.2496ZM19.8218 15.5003C19.6192 15.51 19.4167 15.4786 19.2265 15.4078L21.3191 9.78457C20.7486 9.57229 20.1411 9.47794 19.5331 9.50723L19.8218 15.5003ZM19.2265 15.4078C19.0363 15.3371 18.8625 15.2285 18.7156 15.0886L22.8519 10.7423C22.411 10.3227 21.8896 9.99686 21.3191 9.78457L19.2265 15.4078ZM18.7156 15.0886C18.5686 14.9487 18.4515 14.7805 18.3714 14.5941L23.8843 12.2259C23.6441 11.6666 23.2928 11.1619 22.8519 10.7423L18.7156 15.0886ZM18.3714 14.5941C18.2914 14.4076 18.2499 14.2069 18.2497 14.004L24.2496 13.996C24.2488 13.3873 24.1245 12.7851 23.8843 12.2259L18.3714 14.5941ZM24.2496 3.50001H19.31V9.5H24.2496V3.50001ZM21.4307 8.6219L23.151 6.90253L18.9095 2.65873L17.1892 4.37811L21.4307 8.6219ZM23.1516 6.90195C23.4999 6.55368 23.7761 6.14024 23.9646 5.68523L18.4213 3.38913C18.5344 3.11621 18.7001 2.86821 18.909 2.65931L23.1516 6.90195ZM23.9646 5.68523C24.153 5.23023 24.2501 4.74254 24.2501 4.25001L18.2501 4.25001C18.2501 3.95456 18.3083 3.66204 18.4213 3.38913L23.9646 5.68523ZM24.2501 4.25001C24.2501 3.75747 24.153 3.26978 23.9646 2.81478L18.4213 5.11088C18.3083 4.83797 18.2501 4.54545 18.2501 4.25001L24.2501 4.25001ZM23.9646 2.81478C23.7761 2.35977 23.4999 1.94633 23.1516 1.59806L18.909 5.8407C18.7001 5.6318 18.5344 5.3838 18.4213 5.11088L23.9646 2.81478ZM23.1516 1.59806C22.8033 1.2498 22.3899 0.973547 21.9349 0.785071L19.6388 6.32835C19.3658 6.2153 19.1178 6.04959 18.909 5.8407L23.1516 1.59806ZM21.9349 0.785071C21.4798 0.596595 20.9922 0.499588 20.4996 0.499588V6.49959C20.2042 6.49959 19.9117 6.4414 19.6388 6.32835L21.9349 0.785071ZM20.4996 0.499588C20.0071 0.499588 19.5195 0.596595 19.0644 0.785071L21.3605 6.32835C21.0876 6.4414 20.7951 6.49959 20.4996 6.49959V0.499588ZM19.0644 0.785071C18.6094 0.973547 18.196 1.2498 17.8477 1.59806L22.0903 5.8407C21.8815 6.04959 21.6335 6.2153 21.3605 6.32835L19.0644 0.785071ZM17.8477 1.59806L14.8477 4.59806L19.0903 8.8407L22.0903 5.8407L17.8477 1.59806ZM14.8489 4.59688C14.5002 4.94515 14.2236 5.35873 14.0349 5.81398L19.5775 8.11162C19.4643 8.38477 19.2984 8.63292 19.0892 8.84188L14.8489 4.59688ZM14.0349 5.81398C13.8462 6.26924 13.7491 6.75722 13.7491 7.25001H19.7491C19.7491 7.54566 19.6908 7.83845 19.5775 8.11162L14.0349 5.81398ZM13.7491 7.25001C13.7491 7.74279 13.8462 8.23077 14.0349 8.68603L19.5775 6.38839C19.6908 6.66156 19.7491 6.95435 19.7491 7.25001H13.7491ZM14.0349 8.68603C14.2236 9.14128 14.5002 9.55486 14.8489 9.90313L19.0892 5.65813C19.2984 5.86709 19.4643 6.11524 19.5775 6.38839L14.0349 8.68603ZM14.8477 9.90195L17.8477 12.902L22.0903 8.65931L19.0903 5.65931L14.8477 9.90195ZM17.8477 12.902C18.196 13.2502 18.6094 13.5265 19.0644 13.7149L21.3605 8.17166C21.6335 8.28471 21.8814 8.45041 22.0903 8.65931L17.8477 12.902ZM19.0644 13.7149C19.5195 13.9034 20.0071 14.0004 20.4996 14.0004V8.00042C20.7951 8.00042 21.0876 8.05861 21.3605 8.17166L19.0644 13.7149ZM20.4996 14.0004C20.9922 14.0004 21.4798 13.9034 21.9349 13.7149L19.6388 8.17166C19.9117 8.05861 20.2042 8.00042 20.4996 8.00042V14.0004ZM21.9349 13.7149C22.3899 13.5265 22.8033 13.2502 23.1516 12.902L18.909 8.65931C19.1179 8.45041 19.3658 8.28471 19.6388 8.17166L21.9349 13.7149ZM23.1516 12.902C23.4999 12.5537 23.7761 12.1402 23.9646 11.6852L18.4213 9.38913C18.5344 9.11621 18.7001 8.86821 18.909 8.65931L23.1516 12.902ZM23.9646 11.6852C24.1531 11.2302 24.2501 10.7425 24.2501 10.25L18.2501 10.25C18.2501 9.95456 18.3083 9.66204 18.4213 9.38913L23.9646 11.6852ZM24.2501 10.25C24.2501 9.75747 24.1531 9.26978 23.9646 8.81478L18.4213 11.1109C18.3083 10.838 18.2501 10.5454 18.2501 10.25L24.2501 10.25ZM23.9646 8.81478C23.7761 8.35978 23.4999 7.94633 23.1516 7.59806L18.909 11.8407C18.7001 11.6318 18.5344 11.3838 18.4213 11.1109L23.9646 8.81478ZM23.151 7.59748L21.4307 5.87811L17.1892 10.1219L18.9095 11.8413L23.151 7.59748ZM19.31 11H24.2496V5.00001H19.31V11ZM24.2496 11C25.2442 11 26.198 10.6049 26.9013 9.90166L22.6587 5.65901C23.0806 5.23706 23.6529 5.00001 24.2496 5.00001V11ZM26.9013 9.90166C27.6046 9.19839 27.9996 8.24456 27.9996 7.25001H21.9996C21.9996 6.65327 22.2367 6.08098 22.6587 5.65901L26.9013 9.90166ZM27.9996 7.25001C27.9996 6.25545 27.6046 5.30162 26.9013 4.59835L22.6587 8.841C22.2367 8.41903 21.9996 7.84674 21.9996 7.25001H27.9996ZM26.9013 4.59835C26.198 3.89509 25.2442 3.50001 24.2496 3.50001V9.5C23.6529 9.5 23.0806 9.26295 22.6587 8.841L26.9013 4.59835Z" fill="#0F0F0F" fill-opacity="0.48" mask="url(#path-1-outside-1_1547_8728)"/>
</svg>