<svg xmlns="http://www.w3.org/2000/svg" width="24" height="24" viewBox="0 0 24 24" fill="none">
  <g clip-path="url(#clip0_4659_26358)">
    <path d="M19.5001 10.5C19.4467 10.5 19.3942 10.5 19.3417 10.5L19.0135 9.39375C19.1738 9.37969 19.336 9.37125 19.5001 9.37125C19.7985 9.37125 20.0846 9.25272 20.2956 9.04175C20.5066 8.83077 20.6251 8.54462 20.6251 8.24625C20.6251 7.94788 20.5066 7.66173 20.2956 7.45076C20.0846 7.23978 19.7985 7.12125 19.5001 7.12125H18.3404L17.5792 4.55156C17.5095 4.31961 17.3669 4.11632 17.1725 3.9719C16.9781 3.82749 16.7423 3.74967 16.5001 3.75H13.5001C13.2017 3.75 12.9156 3.86853 12.7046 4.07951C12.4936 4.29048 12.3751 4.57663 12.3751 4.875C12.3751 5.17337 12.4936 5.45952 12.7046 5.6705C12.9156 5.88147 13.2017 6 13.5001 6H15.6563L15.9901 7.125H14.2501C12.4276 7.125 10.9388 7.55813 9.9451 8.37844C9.78158 8.50951 9.5847 8.59229 9.37665 8.61747C9.1686 8.64265 8.95766 8.60922 8.76759 8.52094C7.53666 7.95844 3.40603 6.17719 2.98791 6L2.49384 5.79C2.49384 5.79 2.10009 5.625 1.87509 5.625C1.61494 5.62496 1.36281 5.71508 1.16163 5.88002C0.960452 6.04496 0.822654 6.27453 0.771698 6.52965C0.720741 6.78476 0.759776 7.04965 0.882157 7.27922C1.00454 7.50879 1.2027 7.68885 1.44291 7.78875C1.60416 7.85719 5.53697 9.52313 7.83666 10.5694C8.27843 10.7695 8.75792 10.8728 9.24291 10.8722C10.0212 10.8748 10.7762 10.6067 11.3785 10.1138C11.9167 9.67031 12.8392 9.4125 13.9932 9.37875C12.7576 10.5871 11.9538 12.1684 11.7057 13.8788H8.8576C8.58378 12.8183 7.93259 11.894 7.02609 11.2793C6.11959 10.6646 5.02001 10.4016 3.93347 10.5396C2.84693 10.6776 1.84802 11.2072 1.12398 12.029C0.399945 12.8508 0.000488281 13.9085 0.000488281 15.0038C0.000488281 16.099 0.399945 17.1567 1.12398 17.9785C1.84802 18.8003 2.84693 19.3299 3.93347 19.4679C5.02001 19.6059 6.11959 19.3429 7.02609 18.7282C7.93259 18.1135 8.58378 17.1892 8.8576 16.1288H12.7501C13.0485 16.1288 13.3346 16.0102 13.5456 15.7992C13.7566 15.5883 13.8751 15.3021 13.8751 15.0038C13.8754 13.9839 14.153 12.9834 14.6781 12.1092C15.2033 11.235 15.9562 10.5199 16.8563 10.0406L17.1845 11.1469C16.2525 11.7091 15.5559 12.59 15.2237 13.6265C14.8915 14.663 14.9462 15.7847 15.3777 16.7839C15.8092 17.7831 16.5882 18.5921 17.5704 19.061C18.5526 19.5299 19.6715 19.6269 20.7197 19.3341C21.768 19.0412 22.6746 18.3784 23.2716 17.4683C23.8686 16.5583 24.1156 15.4627 23.9667 14.3846C23.8179 13.3064 23.2833 12.3187 22.462 11.6045C21.6408 10.8902 20.5885 10.4978 19.5001 10.5ZM4.50009 16.125H6.44728C6.19963 16.5539 5.81736 16.8892 5.35976 17.0787C4.90216 17.2683 4.39481 17.3015 3.91638 17.1733C3.43796 17.0451 3.0152 16.7627 2.71368 16.3697C2.41216 15.9768 2.24872 15.4953 2.24872 15C2.24872 14.5047 2.41216 14.0232 2.71368 13.6303C3.0152 13.2373 3.43796 12.9549 3.91638 12.8267C4.39481 12.6985 4.90216 12.7317 5.35976 12.9213C5.81736 13.1108 6.19963 13.4461 6.44728 13.875H4.50009C4.20173 13.875 3.91558 13.9935 3.7046 14.2045C3.49362 14.4155 3.37509 14.7016 3.37509 15C3.37509 15.2984 3.49362 15.5845 3.7046 15.7955C3.91558 16.0065 4.20173 16.125 4.50009 16.125ZM19.5001 17.25C19.0606 17.2495 18.6308 17.1202 18.2639 16.8782C17.897 16.6362 17.609 16.292 17.4355 15.8882C17.262 15.4843 17.2106 15.0385 17.2876 14.6058C17.3646 14.173 17.5667 13.7723 17.8688 13.4531L18.421 15.3197C18.49 15.5523 18.6323 15.7565 18.8268 15.9016C19.0213 16.0467 19.2574 16.1251 19.5001 16.125C19.6083 16.1248 19.7159 16.1093 19.8198 16.0791C19.9615 16.0371 20.0936 15.9677 20.2085 15.8747C20.3234 15.7817 20.4188 15.6669 20.4893 15.537C20.5598 15.4071 20.6041 15.2646 20.6195 15.1176C20.6349 14.9706 20.6212 14.822 20.5792 14.6803L20.0251 12.8128C20.5602 12.942 21.0294 13.2628 21.3438 13.7146C21.6583 14.1663 21.7963 14.7177 21.7316 15.2644C21.6669 15.811 21.4041 16.315 20.9929 16.6809C20.5816 17.0468 20.0505 17.2493 19.5001 17.25Z" fill="#0F0F0F"/>
  </g>
  <defs>
    <clipPath id="clip0_4659_26358">
      <rect width="24" height="24" fill="white"/>
    </clipPath>
  </defs>
</svg>