<svg width="24" height="24" viewBox="0 0 24 24" fill="none" xmlns="http://www.w3.org/2000/svg">
<rect width="24" height="24" rx="12" fill="#105AFF"/>
<path d="M14.75 11.5C14.75 12.0439 14.5887 12.5756 14.2865 13.0278C13.9844 13.4801 13.5549 13.8325 13.0524 14.0407C12.5499 14.2488 11.997 14.3033 11.4635 14.1972C10.9301 14.0911 10.4401 13.8291 10.0555 13.4445C9.67086 13.0599 9.40895 12.5699 9.30284 12.0365C9.19673 11.5031 9.25119 10.9501 9.45933 10.4476C9.66748 9.94512 10.0199 9.51563 10.4722 9.21346C10.9244 8.91128 11.4561 8.75 12 8.75C12.7291 8.75083 13.4281 9.04082 13.9436 9.55637C14.4592 10.0719 14.7492 10.7709 14.75 11.5ZM18.5 12C18.5 13.2856 18.1188 14.5423 17.4046 15.6112C16.6903 16.6801 15.6752 17.5132 14.4874 18.0052C13.2997 18.4972 11.9928 18.6259 10.7319 18.3751C9.47104 18.1243 8.31285 17.5052 7.40381 16.5962C6.49477 15.6872 5.8757 14.529 5.6249 13.2681C5.37409 12.0072 5.50282 10.7003 5.99479 9.51256C6.48676 8.32484 7.31988 7.30968 8.3888 6.59545C9.45772 5.88122 10.7144 5.5 12 5.5C13.7234 5.50182 15.3756 6.18722 16.5942 7.40582C17.8128 8.62441 18.4982 10.2767 18.5 12ZM17.5 12C17.4992 11.2597 17.3491 10.5272 17.0587 9.84622C16.7683 9.16527 16.3436 8.54987 15.8099 8.03683C15.2762 7.5238 14.6445 7.12366 13.9526 6.86035C13.2608 6.59704 12.5229 6.47597 11.7831 6.50437C8.83938 6.61812 6.49188 9.07 6.5 12.0156C6.50283 13.3566 6.99739 14.6499 7.89 15.6506C8.25352 15.1234 8.71528 14.6712 9.25 14.3188C9.29559 14.2886 9.34979 14.2743 9.40431 14.2779C9.45883 14.2815 9.51066 14.3029 9.55188 14.3387C10.2314 14.9265 11.0997 15.2499 11.9981 15.2499C12.8965 15.2499 13.7649 14.9265 14.4444 14.3387C14.4856 14.3029 14.5374 14.2815 14.5919 14.2779C14.6465 14.2743 14.7007 14.2886 14.7463 14.3188C15.2817 14.671 15.7441 15.1232 16.1081 15.6506C17.0052 14.6463 17.5007 13.3466 17.5 12Z" fill="white"/>
</svg>
