<svg xmlns="http://www.w3.org/2000/svg" width="20" height="20" viewBox="0 0 20 20" fill="none">
  <path d="M16.4162 6.97872L8.41622 14.9787C8.36979 15.0252 8.31464 15.0621 8.25394 15.0873C8.19324 15.1124 8.12818 15.1254 8.06247 15.1254C7.99676 15.1254 7.9317 15.1124 7.871 15.0873C7.8103 15.0621 7.75516 15.0252 7.70872 14.9787L4.20872 11.4787C4.1149 11.3849 4.06219 11.2577 4.06219 11.125C4.06219 10.9923 4.1149 10.865 4.20872 10.7712C4.30254 10.6774 4.42979 10.6247 4.56247 10.6247C4.69515 10.6247 4.8224 10.6774 4.91622 10.7712L8.06247 13.9181L15.7087 6.27122C15.8025 6.1774 15.9298 6.12469 16.0625 6.12469C16.1952 6.12469 16.3224 6.1774 16.4162 6.27122C16.51 6.36504 16.5627 6.49229 16.5627 6.62497C16.5627 6.75765 16.51 6.8849 16.4162 6.97872Z" fill="#FF9200" stroke="#FF9200" stroke-width="0.8"/>
</svg>