<svg xmlns="http://www.w3.org/2000/svg" width="14" height="14" viewBox="0 0 14 14" fill="none">
  <path d="M7 4.375C6.48082 4.375 5.97331 4.52895 5.54163 4.81739C5.10995 5.10583 4.7735 5.5158 4.57482 5.99546C4.37614 6.47511 4.32415 7.00291 4.42544 7.51211C4.52673 8.02131 4.77673 8.48904 5.14384 8.85616C5.51096 9.22327 5.97869 9.47328 6.48789 9.57456C6.99709 9.67585 7.52489 9.62386 8.00454 9.42518C8.4842 9.2265 8.89417 8.89005 9.18261 8.45837C9.47105 8.02669 9.625 7.51918 9.625 7C9.62428 6.30403 9.34748 5.63677 8.85536 5.14464C8.36323 4.65252 7.69597 4.37572 7 4.375ZM7 8.3125C6.74041 8.3125 6.48665 8.23552 6.27081 8.0913C6.05497 7.94708 5.88675 7.7421 5.78741 7.50227C5.68807 7.26244 5.66208 6.99854 5.71272 6.74394C5.76336 6.48934 5.88837 6.25548 6.07192 6.07192C6.25548 5.88837 6.48934 5.76336 6.74394 5.71272C6.99854 5.66208 7.26244 5.68807 7.50227 5.78741C7.7421 5.88675 7.94708 6.05497 8.0913 6.27081C8.23552 6.48665 8.3125 6.74041 8.3125 7C8.3125 7.3481 8.17422 7.68194 7.92808 7.92808C7.68194 8.17422 7.3481 8.3125 7 8.3125ZM9.625 1.09375H4.375C3.50507 1.09476 2.67106 1.44079 2.05592 2.05592C1.44079 2.67106 1.09476 3.50507 1.09375 4.375V9.625C1.09476 10.4949 1.44079 11.3289 2.05592 11.9441C2.67106 12.5592 3.50507 12.9052 4.375 12.9062H9.625C10.4949 12.9052 11.3289 12.5592 11.9441 11.9441C12.5592 11.3289 12.9052 10.4949 12.9062 9.625V4.375C12.9052 3.50507 12.5592 2.67106 11.9441 2.05592C11.3289 1.44079 10.4949 1.09476 9.625 1.09375ZM11.5938 9.625C11.5937 10.1471 11.3863 10.6479 11.0171 11.0171C10.6479 11.3863 10.1471 11.5938 9.625 11.5938H4.375C3.85286 11.5937 3.3521 11.3863 2.98288 11.0171C2.61367 10.6479 2.40625 10.1471 2.40625 9.625V4.375C2.40625 3.85286 2.61367 3.3521 2.98288 2.98288C3.3521 2.61367 3.85286 2.40625 4.375 2.40625H9.625C10.1471 2.40625 10.6479 2.61367 11.0171 2.98288C11.3863 3.3521 11.5938 3.85286 11.5938 4.375V9.625ZM10.7188 4.15625C10.7188 4.32931 10.6674 4.49848 10.5713 4.64237C10.4751 4.78627 10.3385 4.89842 10.1786 4.96464C10.0187 5.03087 9.84278 5.0482 9.67305 5.01444C9.50331 4.98068 9.3474 4.89734 9.22503 4.77497C9.10266 4.6526 9.01932 4.49669 8.98556 4.32695C8.9518 4.15722 8.96913 3.98129 9.03536 3.8214C9.10158 3.66152 9.21373 3.52486 9.35763 3.42871C9.50152 3.33257 9.67069 3.28125 9.84375 3.28125C10.0758 3.28125 10.2984 3.37344 10.4625 3.53753C10.6266 3.70163 10.7188 3.92419 10.7188 4.15625Z" fill="black"/>
</svg>