<svg width="24" height="24" viewBox="0 0 24 24" fill="none" xmlns="http://www.w3.org/2000/svg">
<path d="M7.45195 12.7403L8.99414 10.6123V12.7403H7.45195ZM21.7441 5.33852V18.6618C21.7441 19.0544 21.5861 19.4309 21.3048 19.7086C21.0235 19.9862 20.642 20.1422 20.2441 20.1422H3.74414C3.34632 20.1422 2.96478 19.9862 2.68348 19.7086C2.40218 19.4309 2.24414 19.0544 2.24414 18.6618V5.33852C2.24414 4.9459 2.40218 4.56936 2.68348 4.29174C2.96478 4.01412 3.34632 3.85815 3.74414 3.85815H20.2441C20.642 3.85815 21.0235 4.01412 21.3048 4.29174C21.5861 4.56936 21.7441 4.9459 21.7441 5.33852ZM11.6191 13.4805C11.6191 13.2842 11.5401 13.0959 11.3995 12.9571C11.2588 12.8183 11.0681 12.7403 10.8691 12.7403H10.4941V8.29924C10.4941 8.14242 10.4437 7.98965 10.35 7.86296C10.2564 7.73627 10.1244 7.64221 9.97303 7.59435C9.8217 7.54649 9.65888 7.5473 9.50806 7.59666C9.35723 7.64603 9.22619 7.7414 9.13383 7.86901L5.38383 13.0503C5.30373 13.161 5.25607 13.2913 5.24609 13.4269C5.23611 13.5625 5.26419 13.6983 5.32725 13.8192C5.39031 13.9401 5.4859 14.0416 5.60355 14.1124C5.72119 14.1832 5.85634 14.2207 5.99414 14.2207H8.99414V15.7011C8.99414 15.8974 9.07316 16.0856 9.21381 16.2245C9.35446 16.3633 9.54523 16.4412 9.74414 16.4412C9.94305 16.4412 10.1338 16.3633 10.2745 16.2245C10.4151 16.0856 10.4941 15.8974 10.4941 15.7011V14.2207H10.8691C11.0681 14.2207 11.2588 14.1427 11.3995 14.0039C11.5401 13.8651 11.6191 13.6768 11.6191 13.4805ZM16.2682 11.4237L18.5632 8.78129C18.6897 8.63195 18.7515 8.43947 18.7352 8.2455C18.7189 8.05154 18.6259 7.87171 18.4762 7.74495C18.3266 7.61819 18.1324 7.55469 17.9356 7.56822C17.7389 7.58174 17.5555 7.67119 17.4251 7.8172L14.7879 10.8529L14.2441 11.4793V8.29924C14.2441 8.10294 14.1651 7.91467 14.0245 7.77586C13.8838 7.63705 13.6931 7.55906 13.4941 7.55906C13.2952 7.55906 13.1045 7.63705 12.9638 7.77586C12.8232 7.91467 12.7441 8.10294 12.7441 8.29924V15.7011C12.7441 15.8974 12.8232 16.0856 12.9638 16.2245C13.1045 16.3633 13.2952 16.4412 13.4941 16.4412C13.6931 16.4412 13.8838 16.3633 14.0245 16.2245C14.1651 16.0856 14.2441 15.8974 14.2441 15.7011V13.7581L15.2398 12.6117L17.351 16.086C17.4017 16.1693 17.4686 16.242 17.5478 16.2998C17.627 16.3577 17.7169 16.3996 17.8125 16.4231C17.9081 16.4467 18.0074 16.4514 18.1049 16.437C18.2023 16.4227 18.2959 16.3895 18.3804 16.3395C18.4648 16.2894 18.5385 16.2234 18.5971 16.1453C18.6557 16.0671 18.6982 15.9784 18.722 15.884C18.7459 15.7897 18.7507 15.6916 18.7361 15.5955C18.7216 15.4993 18.688 15.4069 18.6373 15.3236L16.2682 11.4237Z" fill="#0F0F0F"/>
</svg>
