<svg xmlns="http://www.w3.org/2000/svg" width="24" height="24" viewBox="0 0 24 24" fill="none">
  <path d="M21.9646 10.7672L17.7459 14.4075L19.0312 19.8516C19.1021 20.1471 19.0838 20.457 18.9787 20.7422C18.8736 21.0273 18.6863 21.2749 18.4405 21.4537C18.1947 21.6325 17.9015 21.7344 17.5978 21.7466C17.2941 21.7588 16.9936 21.6807 16.7343 21.5222L11.9999 18.6084L7.26275 21.5222C7.00347 21.6798 6.70335 21.7571 6.4002 21.7445C6.09704 21.7318 5.8044 21.6298 5.55913 21.4512C5.31386 21.2726 5.12692 21.0254 5.02185 20.7407C4.91679 20.4561 4.89829 20.1467 4.96869 19.8516L6.25869 14.4075L2.03994 10.7672C1.81053 10.5689 1.64462 10.3075 1.56293 10.0155C1.48123 9.72345 1.48737 9.41385 1.58058 9.12531C1.67379 8.83678 1.84994 8.5821 2.08703 8.39308C2.32412 8.20407 2.61164 8.08908 2.91369 8.0625L8.44494 7.61625L10.5787 2.4525C10.6942 2.17108 10.8908 1.93036 11.1434 1.76094C11.3961 1.59153 11.6934 1.50107 11.9976 1.50107C12.3018 1.50107 12.5991 1.59153 12.8518 1.76094C13.1044 1.93036 13.301 2.17108 13.4165 2.4525L15.5493 7.61625L21.0806 8.0625C21.3832 8.0881 21.6716 8.20244 21.9095 8.39119C22.1475 8.57995 22.3244 8.83473 22.4182 9.12361C22.512 9.4125 22.5185 9.72264 22.4368 10.0152C22.3551 10.3077 22.1889 10.5696 21.959 10.7681L21.9646 10.7672Z" fill="#0F0F0F"/>
</svg>