<svg width="120" height="120" viewBox="0 0 24 24" xmlns="http://www.w3.org/2000/svg">
  <path
    fill-rule="evenodd"
    clip-rule="evenodd"
    d="
      M18.35 2C19.131 2 19.907 2.47 20.175 3.305L20.251 3.551L20.33 3.831L20.41 4.147L20.487 4.493L20.56 4.869L20.594 5.067L20.655 5.484C20.885 7.274 20.812 9.714 19.533 12.189L19.374 12.486C18.032 14.901 18.129 17.332 18.432 18.911L18.506 19.26L18.544 19.422L18.621 19.722L18.698 19.984C18.972 20.874 18.38 21.906 17.371 21.994L17.231 22H5.65002C4.87002 22 4.09302 21.53 3.82502 20.695L3.75002 20.449L3.67002 20.169L3.59002 19.853L3.51302 19.507L3.44002 19.131C3.41602 19.001 3.39402 18.867 3.37402 18.728L3.31902 18.298L3.27702 17.844C3.15002 16.14 3.34202 13.989 4.46702 11.811L4.62602 11.514C5.96802 9.1 5.87002 6.668 5.56802 5.09L5.49502 4.741L5.45602 4.579L5.37902 4.279L5.30202 4.017C5.02802 3.127 5.62002 2.095 6.62902 2.007L6.77002 2H18.35Z

      M11.6892 8.84977C11.8019 8.59644 12.1489 8.5841 12.2849 8.81177L12.3045 8.84977L12.6519 9.63144C12.9552 10.3137 13.4595 10.8872 14.0975 11.2751L14.2049 11.3381L14.8215 11.6848C14.8706 11.7122 14.9119 11.7515 14.9419 11.799C14.9719 11.8466 14.9894 11.9008 14.9931 11.9569C14.9967 12.013 14.9862 12.069 14.9626 12.12C14.939 12.171 14.903 12.2153 14.8579 12.2488L14.8219 12.2721L14.2049 12.6188C13.554 12.9849 13.0304 13.541 12.7042 14.2128L12.6519 14.3254L12.3045 15.1071C12.1919 15.3604 11.8449 15.3728 11.7089 15.1451L11.6892 15.1071L11.3419 14.3254C11.0386 13.6431 10.5342 13.0697 9.89621 12.6818L9.78887 12.6188L9.17221 12.2721C9.12318 12.2447 9.08181 12.2054 9.05185 12.1579C9.02189 12.1103 9.00431 12.0561 9.0007 12C8.99708 11.9439 9.00756 11.8878 9.03117 11.8369C9.05478 11.7859 9.09078 11.7416 9.13587 11.7081L9.17187 11.6848L9.78887 11.3381C10.4397 10.972 10.9633 10.4159 11.2895 9.7441L11.3419 9.63144L11.6892 8.84977Z
    "
    fill="#0F0F0F"
  />
</svg>
