<svg xmlns="http://www.w3.org/2000/svg" width="16" height="16" viewBox="0 0 16 16" fill="none">
  <path d="M14.4996 2C14.4996 1.86739 14.4469 1.74021 14.3531 1.64645C14.2594 1.55268 14.1322 1.5 13.9996 1.5C11.2446 1.5 8.41769 4.60687 6.84769 6.66437C6.28698 6.49265 5.69382 6.45482 5.11584 6.55392C4.53786 6.65302 3.99118 6.88629 3.5197 7.23499C3.04823 7.58369 2.6651 8.0381 2.40109 8.56172C2.13709 9.08535 1.99956 9.66359 1.99957 10.25C1.99957 12.18 0.778316 13.0456 0.720191 13.0856C0.631496 13.1455 0.564359 13.2323 0.528651 13.3332C0.492944 13.4341 0.49055 13.5437 0.521822 13.6461C0.553094 13.7485 0.616381 13.8381 0.702378 13.9018C0.788376 13.9655 0.892544 13.9999 0.999566 14H5.74957C6.33598 14 6.91422 13.8625 7.43784 13.5985C7.96147 13.3345 8.41588 12.9513 8.76458 12.4799C9.11327 12.0084 9.34654 11.4617 9.44564 10.8837C9.54474 10.3057 9.50691 9.71258 9.33519 9.15187C11.3933 7.58187 14.4996 4.755 14.4996 2ZM7.77582 7.09688C7.98998 6.81938 8.20019 6.55792 8.40644 6.3125C8.91127 6.65357 9.346 7.0883 9.68707 7.59312C9.44123 7.79896 9.17977 8.00917 8.90269 8.22375C8.61133 7.77238 8.22718 7.38824 7.77582 7.09688ZM10.4446 6.92938C10.0671 6.39675 9.60219 5.93185 9.06957 5.55438C11.0558 3.39625 12.5539 2.74187 13.4383 2.56C13.2602 3.445 12.6027 4.94313 10.4446 6.92938Z" fill="#0F0F0F"/>
</svg>