<svg xmlns="http://www.w3.org/2000/svg" width="24" height="24" viewBox="0 0 24 24" fill="none">
  <path d="M19.3125 2.50219C19.242 2.4227 19.1553 2.35911 19.0584 2.31563C18.9614 2.27216 18.8563 2.24978 18.75 2.25H5.25001C5.14358 2.24997 5.03837 2.27258 4.94135 2.31634C4.84434 2.36011 4.75775 2.42402 4.68734 2.50383C4.61693 2.58364 4.56431 2.67752 4.53299 2.77923C4.50166 2.88094 4.49233 2.98816 4.50564 3.09375L6.67595 21.1875C6.72165 21.5502 6.89826 21.8838 7.17257 22.1255C7.44689 22.3672 7.80004 22.5004 8.16564 22.5H15.8344C16.2013 22.5001 16.5555 22.3657 16.83 22.1223C17.1045 21.8789 17.2803 21.5433 17.3241 21.1791L19.4944 3.09375C19.5079 2.98788 19.4987 2.88035 19.4673 2.77834C19.436 2.67632 19.3832 2.58218 19.3125 2.50219ZM17.9063 3.75L17.6344 6H6.36564L6.09376 3.75H17.9063Z" fill="#0F0F0F"/>
</svg>