<svg xmlns="http://www.w3.org/2000/svg" width="24" height="24" viewBox="0 0 24 24" fill="none">
  <path d="M21.373 12C21.373 12.2984 21.2545 12.5845 21.0435 12.7955C20.8326 13.0065 20.5464 13.125 20.248 13.125H3.74805C3.44968 13.125 3.16353 13.0065 2.95255 12.7955C2.74157 12.5845 2.62305 12.2984 2.62305 12C2.62305 11.7016 2.74157 11.4155 2.95255 11.2045C3.16353 10.9935 3.44968 10.875 3.74805 10.875H20.248C20.5464 10.875 20.8326 10.9935 21.0435 11.2045C21.2545 11.4155 21.373 11.7016 21.373 12ZM3.74805 7.125H20.248C20.5464 7.125 20.8326 7.00647 21.0435 6.7955C21.2545 6.58452 21.373 6.29837 21.373 6C21.373 5.70163 21.2545 5.41548 21.0435 5.2045C20.8326 4.99353 20.5464 4.875 20.248 4.875H3.74805C3.44968 4.875 3.16353 4.99353 2.95255 5.2045C2.74157 5.41548 2.62305 5.70163 2.62305 6C2.62305 6.29837 2.74157 6.58452 2.95255 6.7955C3.16353 7.00647 3.44968 7.125 3.74805 7.125ZM20.248 16.875H3.74805C3.44968 16.875 3.16353 16.9935 2.95255 17.2045C2.74157 17.4155 2.62305 17.7016 2.62305 18C2.62305 18.2984 2.74157 18.5845 2.95255 18.7955C3.16353 19.0065 3.44968 19.125 3.74805 19.125H20.248C20.5464 19.125 20.8326 19.0065 21.0435 18.7955C21.2545 18.5845 21.373 18.2984 21.373 18C21.373 17.7016 21.2545 17.4155 21.0435 17.2045C20.8326 16.9935 20.5464 16.875 20.248 16.875Z" fill="#0F0F0F"/>
</svg>