<svg xmlns="http://www.w3.org/2000/svg" width="24" height="24" viewBox="0 0 24 24" fill="none">
  <path d="M22.125 9C22.1257 8.89546 22.1118 8.79133 22.0837 8.69062L20.7375 3.98531C20.6247 3.59455 20.3883 3.25084 20.0639 3.00562C19.7394 2.7604 19.3442 2.62686 18.9375 2.625H5.0625C4.65579 2.62686 4.26061 2.7604 3.93613 3.00562C3.61165 3.25084 3.37532 3.59455 3.2625 3.98531L1.91813 8.69062C1.88943 8.79124 1.87492 8.89537 1.875 9V10.5C1.8749 11.1079 2.00934 11.7083 2.26868 12.2581C2.52802 12.8079 2.90583 13.2935 3.375 13.68V20.25C3.375 20.5484 3.49353 20.8345 3.70451 21.0455C3.91548 21.2565 4.20163 21.375 4.5 21.375H19.5C19.7984 21.375 20.0845 21.2565 20.2955 21.0455C20.5065 20.8345 20.625 20.5484 20.625 20.25V13.68C21.0942 13.2935 21.472 12.8079 21.7313 12.2581C21.9907 11.7083 22.1251 11.1079 22.125 10.5V9ZM5.34844 4.875H18.6562L19.5131 7.875H4.49156L5.34844 4.875ZM13.8797 10.125V10.5C13.8797 10.9973 13.6821 11.4742 13.3305 11.8258C12.9789 12.1775 12.502 12.375 12.0047 12.375C11.5074 12.375 11.0305 12.1775 10.6789 11.8258C10.3272 11.4742 10.1297 10.9973 10.1297 10.5V10.125H13.8797ZM4.96875 12.0666C4.70937 11.8957 4.49648 11.6632 4.34921 11.3897C4.20194 11.1163 4.1249 10.8106 4.125 10.5V10.125H7.875V10.5C7.875 10.9973 7.67746 11.4742 7.32583 11.8258C6.9742 12.1775 6.49728 12.375 6 12.375C5.70416 12.3751 5.41259 12.3044 5.14969 12.1688C5.09279 12.129 5.0322 12.0947 4.96875 12.0666ZM18.375 19.125H5.625V14.6072C5.74875 14.6184 5.87344 14.625 6 14.625C6.56226 14.6252 7.11858 14.51 7.63458 14.2867C8.15058 14.0634 8.61529 13.7366 9 13.3266C9.3848 13.7365 9.84953 14.0632 10.3655 14.2865C10.8815 14.5099 11.4378 14.6251 12 14.6251C12.5622 14.6251 13.1185 14.5099 13.6345 14.2865C14.1505 14.0632 14.6152 13.7365 15 13.3266C15.3847 13.7366 15.8494 14.0634 16.3654 14.2867C16.8814 14.51 17.4377 14.6252 18 14.625C18.1266 14.625 18.2512 14.6184 18.375 14.6072V19.125ZM19.875 10.5C19.8751 10.8106 19.7981 11.1163 19.6508 11.3897C19.5035 11.6632 19.2906 11.8957 19.0312 12.0666C18.9694 12.0951 18.9104 12.1293 18.855 12.1688C18.5692 12.3152 18.2505 12.3858 17.9295 12.3737C17.6086 12.3616 17.2961 12.2673 17.0221 12.0998C16.7481 11.9323 16.5217 11.6972 16.3646 11.4171C16.2075 11.137 16.125 10.8212 16.125 10.5V10.125H19.875V10.5Z" fill="#0F0F0F"/>
</svg>