<!-- <svg xmlns="http://www.w3.org/2000/svg" width="20" height="19" viewBox="0 0 20 19" fill="none">
  <path d="M18.75 7.49426H17.9653C17.7769 5.44571 16.8299 3.54147 15.31 2.15503C13.7902 0.768593 11.8072 0 9.75 0C7.69279 0 5.70981 0.768593 4.18998 2.15503C2.67015 3.54147 1.72314 5.44571 1.53469 7.49426H0.75C0.551088 7.49426 0.360322 7.57328 0.21967 7.71393C0.0790176 7.85458 0 8.04535 0 8.24426C0.00329532 10.0279 0.494149 11.7766 1.41948 13.3015C2.34481 14.8263 3.6694 16.0691 5.25 16.8955V17.2443C5.25 17.6421 5.40804 18.0236 5.68934 18.3049C5.97064 18.5862 6.35218 18.7443 6.75 18.7443H12.75C13.1478 18.7443 13.5294 18.5862 13.8107 18.3049C14.092 18.0236 14.25 17.6421 14.25 17.2443V16.8955C15.8306 16.0691 17.1552 14.8263 18.0805 13.3015C19.0058 11.7766 19.4967 10.0279 19.5 8.24426C19.5 8.04535 19.421 7.85458 19.2803 7.71393C19.1397 7.57328 18.9489 7.49426 18.75 7.49426ZM14.0138 3.01582C14.1856 3.15645 14.3503 3.30489 14.5078 3.46114C12.5113 4.16347 10.8614 5.60689 9.9 7.49239H7.13437C7.60313 6.17841 8.46613 5.0412 9.60547 4.23612C10.7448 3.43103 12.1049 2.99733 13.5 2.99426C13.6716 2.99426 13.8431 3.0027 14.0138 3.01582ZM11.6362 7.49426C12.5455 6.13009 13.9212 5.14443 15.5053 4.72207C16.0233 5.56456 16.3482 6.51128 16.4569 7.49426H11.6362ZM9.75 1.49426C10.3518 1.49466 10.9509 1.57569 11.5312 1.7352C10.1179 2.0858 8.82195 2.80277 7.77401 3.81384C6.72606 4.82492 5.96316 6.09437 5.56219 7.49426H3.04312C3.22917 5.84507 4.01562 4.32201 5.25254 3.21546C6.48946 2.1089 8.09035 1.49623 9.75 1.49426Z" fill="#333333"/>
</svg> -->

<svg xmlns="http://www.w3.org/2000/svg" width="24" height="24" viewBox="0 0 24 24" fill="none">
  <path d="M21 9.75H20.2153C20.0269 7.70144 19.0799 5.7972 17.56 4.41077C16.0402 3.02433 14.0572 2.25574 12 2.25574C9.94279 2.25574 7.95981 3.02433 6.43998 4.41077C4.92015 5.7972 3.97314 7.70144 3.78469 9.75H3C2.80109 9.75 2.61032 9.82902 2.46967 9.96967C2.32902 10.1103 2.25 10.3011 2.25 10.5C2.2533 12.2836 2.74415 14.0324 3.66948 15.5572C4.59481 17.082 5.9194 18.3248 7.5 19.1512V19.5C7.5 19.8978 7.65804 20.2794 7.93934 20.5607C8.22064 20.842 8.60218 21 9 21H15C15.3978 21 15.7794 20.842 16.0607 20.5607C16.342 20.2794 16.5 19.8978 16.5 19.5V19.1512C18.0806 18.3248 19.4052 17.082 20.3305 15.5572C21.2558 14.0324 21.7467 12.2836 21.75 10.5C21.75 10.3011 21.671 10.1103 21.5303 9.96967C21.3897 9.82902 21.1989 9.75 21 9.75ZM16.2638 5.27156C16.4356 5.41219 16.6003 5.56062 16.7578 5.71687C14.7613 6.4192 13.1114 7.86263 12.15 9.74812H9.38437C9.85313 8.43415 10.7161 7.29694 11.8555 6.49185C12.9948 5.68677 14.3549 5.25306 15.75 5.25C15.9216 5.25 16.0931 5.25844 16.2638 5.27156ZM13.8862 9.75C14.7955 8.38583 16.1712 7.40017 17.7553 6.97781C18.2733 7.8203 18.5982 8.76702 18.7069 9.75H13.8862ZM12 3.75C12.6018 3.7504 13.2009 3.83143 13.7812 3.99094C12.3679 4.34154 11.072 5.0585 10.024 6.06958C8.97606 7.08066 8.21316 8.35011 7.81219 9.75H5.29312C5.47917 8.10081 6.26562 6.57775 7.50254 5.47119C8.73946 4.36464 10.3403 3.75197 12 3.75Z" fill="#0F0F0F"/>
</svg>