<svg xmlns="http://www.w3.org/2000/svg" width="24" height="24" viewBox="0 0 24 24" fill="none">
  <path d="M17.625 8.07281V7.875C17.625 6.50437 16.6097 5.29219 14.7647 4.4625C13.2066 3.76125 11.1562 3.375 9 3.375C6.84375 3.375 4.79344 3.76125 3.23531 4.4625C1.39031 5.29219 0.375 6.50437 0.375 7.875V11.625C0.375 12.9956 1.39031 14.2078 3.23531 15.0375C4.23794 15.4714 5.29372 15.7702 6.375 15.9263V16.125C6.375 17.4956 7.39031 18.7078 9.23531 19.5375C10.7934 20.2387 12.8438 20.625 15 20.625C17.1562 20.625 19.2066 20.2387 20.7647 19.5375C22.6097 18.7078 23.625 17.4956 23.625 16.125V12.375C23.625 10.2994 21.2541 8.6325 17.625 8.07281ZM21.375 12.375C21.375 13.1016 19.3341 14.4825 15.5803 14.6138C16.9059 13.8188 17.625 12.7781 17.625 11.625V10.3538C20.0513 10.7953 21.375 11.7638 21.375 12.375ZM10.0659 13.8403C9.72563 13.8628 9.37031 13.875 9 13.875C8.52375 13.875 8.07281 13.8544 7.64719 13.8178C7.61173 13.8131 7.57606 13.8103 7.54031 13.8094C7.39875 13.7963 7.25906 13.7813 7.125 13.7644V12.2747C7.74776 12.3416 8.37366 12.3751 9 12.375C9.62634 12.3751 10.2522 12.3416 10.875 12.2747V13.7644C10.6416 13.7925 10.3997 13.8169 10.1484 13.8347C10.125 13.8356 10.0931 13.8375 10.0659 13.8403ZM15.375 10.9819V11.625C15.375 12.0731 14.5988 12.7697 13.125 13.2694V11.8631C13.6861 11.7159 14.2344 11.5237 14.7647 11.2884C14.9797 11.1916 15.1831 11.0894 15.375 10.9819ZM9 5.625C13.125 5.625 15.375 7.11094 15.375 7.875C15.375 8.63906 13.125 10.125 9 10.125C4.875 10.125 2.625 8.63906 2.625 7.875C2.625 7.11094 4.875 5.625 9 5.625ZM2.625 11.625V10.9819C2.8175 11.0887 3.02094 11.1906 3.23531 11.2875C3.76557 11.5227 4.3139 11.7149 4.875 11.8622V13.2684C3.40125 12.7697 2.625 12.0731 2.625 11.625ZM8.625 16.125C8.74969 16.125 8.87438 16.125 9 16.125C9.34 16.125 9.67656 16.115 10.0097 16.095C10.2878 16.1931 10.5763 16.2825 10.875 16.3631V17.7694C9.40125 17.2697 8.625 16.5731 8.625 16.125ZM13.125 18.2644V16.7756C13.7478 16.8423 14.3737 16.8755 15 16.875C15.6263 16.8751 16.2522 16.8416 16.875 16.7747V18.2644C15.6294 18.4119 14.3706 18.4119 13.125 18.2644ZM19.125 17.7694V16.3631C19.6861 16.2159 20.2344 16.0237 20.7647 15.7884C20.9797 15.6922 21.1831 15.5903 21.375 15.4828V16.125C21.375 16.5731 20.5987 17.2697 19.125 17.7694Z" fill="#0F0F0F"/>
</svg>