<svg width="22" height="22" viewBox="0 0 22 22" fill="none" xmlns="http://www.w3.org/2000/svg">
<path d="M11 21.1348C9.59375 21.1348 8.27539 20.8678 7.04492 20.334C5.81445 19.8066 4.73047 19.0742 3.79297 18.1367C2.86198 17.2057 2.13281 16.1283 1.60547 14.9043C1.07812 13.6738 0.814453 12.3555 0.814453 10.9492C0.814453 9.54297 1.07812 8.22461 1.60547 6.99414C2.13281 5.76367 2.86198 4.68294 3.79297 3.75195C4.73047 2.81445 5.81445 2.08203 7.04492 1.55469C8.27539 1.02734 9.59375 0.763672 11 0.763672C12.4062 0.763672 13.7246 1.02734 14.9551 1.55469C16.1855 2.08203 17.2663 2.81445 18.1973 3.75195C19.1283 4.68294 19.8574 5.76367 20.3848 6.99414C20.9186 8.22461 21.1855 9.54297 21.1855 10.9492C21.1855 12.3555 20.9186 13.6738 20.3848 14.9043C19.8574 16.1283 19.1283 17.2057 18.1973 18.1367C17.2663 19.0742 16.1855 19.8066 14.9551 20.334C13.7246 20.8678 12.4062 21.1348 11 21.1348ZM12.1523 14.1523L15.9902 10.0605C16.1725 9.86523 16.2669 9.64062 16.2734 9.38672C16.2799 9.1263 16.1953 8.91471 16.0195 8.75195C15.8242 8.55664 15.5964 8.45898 15.3359 8.45898C15.082 8.45247 14.8672 8.54688 14.6914 8.74219L11.0098 12.6582L7.32812 8.74219C7.15234 8.54688 6.93424 8.45247 6.67383 8.45898C6.41341 8.45898 6.18555 8.55664 5.99023 8.75195C5.82096 8.92122 5.73958 9.13281 5.74609 9.38672C5.7526 9.64062 5.84701 9.86198 6.0293 10.0508L9.86719 14.1523C10.0951 14.3932 10.3424 14.556 10.6094 14.6406C10.8763 14.7188 11.1432 14.7188 11.4102 14.6406C11.6771 14.556 11.9245 14.3932 12.1523 14.1523Z" fill="#0F0F0F"/>
</svg>
