

<svg xmlns="http://www.w3.org/2000/svg" width="24" height="24" viewBox="0 0 24 24" fill="none">
  <path d="M12 3.37499C10.1458 3.37499 8.3332 3.92482 6.79149 4.95496C5.24978 5.9851 4.04816 7.44928 3.33859 9.16233C2.62902 10.8754 2.44336 12.7604 2.8051 14.579C3.16683 16.3975 4.05972 18.068 5.37083 19.3791C6.68195 20.6902 8.35242 21.5831 10.171 21.9449C11.9896 22.3066 13.8746 22.1209 15.5876 21.4114C17.3007 20.7018 18.7648 19.5002 19.795 17.9585C20.8251 16.4167 21.375 14.6042 21.375 12.75C21.3722 10.2644 20.3836 7.88144 18.6261 6.12388C16.8685 4.36632 14.4855 3.37772 12 3.37499ZM12 19.875C10.5908 19.875 9.21322 19.4571 8.04152 18.6742C6.86982 17.8913 5.95659 16.7785 5.41732 15.4766C4.87804 14.1747 4.73694 12.7421 5.01186 11.36C5.28678 9.97786 5.96537 8.7083 6.96182 7.71185C7.95827 6.7154 9.22783 6.03681 10.6099 5.76189C11.9921 5.48697 13.4247 5.62807 14.7266 6.16735C16.0285 6.70662 17.1413 7.61985 17.9242 8.79155C18.7071 9.96325 19.125 11.3408 19.125 12.75C19.123 14.639 18.3717 16.4502 17.0359 17.7859C15.7001 19.1217 13.889 19.873 12 19.875ZM3.0459 6.79593C2.94125 6.90057 2.81702 6.98358 2.68029 7.04022C2.54356 7.09685 2.39702 7.126 2.24902 7.126C2.10103 7.126 1.95448 7.09685 1.81776 7.04022C1.68103 6.98358 1.55679 6.90057 1.45215 6.79593C1.3475 6.69128 1.26449 6.56705 1.20785 6.43032C1.15122 6.29359 1.12207 6.14705 1.12207 5.99905C1.12207 5.85106 1.15122 5.70451 1.20785 5.56779C1.26449 5.43106 1.3475 5.30682 1.45215 5.20218L4.45215 2.20218C4.66349 1.99083 4.95014 1.8721 5.24902 1.8721C5.54791 1.8721 5.83455 1.99083 6.0459 2.20218C6.25724 2.41352 6.37597 2.70017 6.37597 2.99905C6.37597 3.29794 6.25724 3.58458 6.0459 3.79593L3.0459 6.79593ZM22.5459 6.79593C22.4414 6.90081 22.3172 6.98402 22.1804 7.0408C22.0437 7.09759 21.8971 7.12681 21.749 7.12681C21.601 7.12681 21.4543 7.09759 21.3176 7.0408C21.1809 6.98402 21.0567 6.90081 20.9521 6.79593L17.9521 3.79593C17.8475 3.69128 17.7645 3.56705 17.7079 3.43032C17.6512 3.29359 17.6221 3.14705 17.6221 2.99905C17.6221 2.85106 17.6512 2.70451 17.7079 2.56779C17.7645 2.43106 17.8475 2.30682 17.9521 2.20218C18.0568 2.09753 18.181 2.01452 18.3178 1.95788C18.4545 1.90125 18.601 1.8721 18.749 1.8721C18.897 1.8721 19.0436 1.90125 19.1803 1.95788C19.317 2.01452 19.4412 2.09753 19.5459 2.20218L22.5459 5.20218C22.6508 5.30669 22.734 5.43089 22.7908 5.56763C22.8476 5.70438 22.8768 5.85099 22.8768 5.99905C22.8768 6.14712 22.8476 6.29373 22.7908 6.43047C22.734 6.56722 22.6508 6.69141 22.5459 6.79593ZM16.5 11.625C16.7983 11.625 17.0845 11.7435 17.2955 11.9545C17.5064 12.1655 17.625 12.4516 17.625 12.75C17.625 13.0484 17.5064 13.3345 17.2955 13.5455C17.0845 13.7565 16.7983 13.875 16.5 13.875H12C11.7016 13.875 11.4154 13.7565 11.2045 13.5455C10.9935 13.3345 10.875 13.0484 10.875 12.75V8.24999C10.875 7.95162 10.9935 7.66547 11.2045 7.45449C11.4154 7.24352 11.7016 7.12499 12 7.12499C12.2983 7.12499 12.5845 7.24352 12.7955 7.45449C13.0064 7.66547 13.125 7.95162 13.125 8.24999V11.625H16.5Z" fill="black"/>
</svg>