<svg width="24" height="24" viewBox="0 0 24 24" fill="none" xmlns="http://www.w3.org/2000/svg">
<path d="M21.818 8.07278V15.9273C21.818 16.2745 21.6801 16.6075 21.4346 16.853C21.1891 17.0985 20.8561 17.2364 20.5089 17.2364H12.9816C12.8948 17.2364 12.8116 17.2019 12.7502 17.1406C12.6888 17.0792 12.6544 16.9959 12.6544 16.9091V7.09096C12.6544 7.00416 12.6888 6.92092 12.7502 6.85954C12.8116 6.79817 12.8948 6.76369 12.9816 6.76369H20.5089C20.8561 6.76369 21.1891 6.90161 21.4346 7.14711C21.6801 7.39261 21.818 7.72558 21.818 8.07278ZM11.3453 5.45459V18.5455C11.3453 18.7191 11.2763 18.8856 11.1536 19.0083C11.0308 19.1311 10.8643 19.2 10.6907 19.2C10.5171 19.2 10.3506 19.1311 10.2279 19.0083C10.1051 18.8856 10.0362 18.7191 10.0362 18.5455V17.2364H3.49073C3.14354 17.2364 2.81057 17.0985 2.56506 16.853C2.31956 16.6075 2.18164 16.2745 2.18164 15.9273V8.07278C2.18164 7.72558 2.31956 7.39261 2.56506 7.14711C2.81057 6.90161 3.14354 6.76369 3.49073 6.76369H10.0362V5.45459C10.0362 5.281 10.1051 5.11451 10.2279 4.99176C10.3506 4.86901 10.5171 4.80005 10.6907 4.80005C10.8643 4.80005 11.0308 4.86901 11.1536 4.99176C11.2763 5.11451 11.3453 5.281 11.3453 5.45459ZM8.72709 10.691C8.72709 10.5174 8.65813 10.3509 8.53538 10.2281C8.41263 10.1054 8.24615 10.0364 8.07255 10.0364H5.45437C5.28077 10.0364 5.11429 10.1054 4.99153 10.2281C4.86878 10.3509 4.79982 10.5174 4.79982 10.691C4.79982 10.8646 4.86878 11.031 4.99153 11.1538C5.11429 11.2765 5.28077 11.3455 5.45437 11.3455H6.10891V13.3091C6.10891 13.4827 6.17787 13.6492 6.30063 13.772C6.42338 13.8947 6.58986 13.9637 6.76346 13.9637C6.93705 13.9637 7.10354 13.8947 7.22629 13.772C7.34904 13.6492 7.418 13.4827 7.418 13.3091V11.3455H8.07255C8.24615 11.3455 8.41263 11.2765 8.53538 11.1538C8.65813 11.031 8.72709 10.8646 8.72709 10.691Z" fill="#0F0F0F"/>
</svg>
