<svg xmlns="http://www.w3.org/2000/svg" width="33" height="33" viewBox="0 0 33 33" fill="none">
  <path d="M29.0454 13.728C29.3106 13.728 29.565 13.6227 29.7525 13.4351C29.9401 13.2476 30.0454 12.9932 30.0454 12.728V8.72803C30.0454 8.19759 29.8347 7.68889 29.4596 7.31381C29.0846 6.93874 28.5758 6.72803 28.0454 6.72803L4.04541 6.72803C3.51498 6.72803 3.00627 6.93874 2.6312 7.31381C2.25612 7.68889 2.04541 8.19759 2.04541 8.72803L2.04541 12.728C2.04541 12.9932 2.15077 13.2476 2.3383 13.4351C2.52584 13.6227 2.78019 13.728 3.04541 13.728C3.84106 13.728 4.60412 14.0441 5.16673 14.6067C5.72934 15.1693 6.04541 15.9324 6.04541 16.728C6.04541 17.5237 5.72934 18.2867 5.16673 18.8493C4.60412 19.412 3.84106 19.728 3.04541 19.728C2.78019 19.728 2.52584 19.8334 2.3383 20.0209C2.15077 20.2085 2.04541 20.4628 2.04541 20.728L2.04541 24.728C2.04541 25.2585 2.25612 25.7672 2.6312 26.1422C3.00627 26.5173 3.51498 26.728 4.04541 26.728H28.0454C28.5758 26.728 29.0846 26.5173 29.4596 26.1422C29.8347 25.7672 30.0454 25.2585 30.0454 24.728V20.728C30.0454 20.4628 29.9401 20.2085 29.7525 20.0209C29.565 19.8334 29.3106 19.728 29.0454 19.728C28.2498 19.728 27.4867 19.412 26.9241 18.8493C26.3615 18.2867 26.0454 17.5237 26.0454 16.728C26.0454 15.9324 26.3615 15.1693 26.9241 14.6067C27.4867 14.0441 28.2498 13.728 29.0454 13.728ZM4.04541 21.628C5.1757 21.3985 6.19188 20.7853 6.92179 19.8923C7.65169 18.9993 8.05042 17.8814 8.05042 16.728C8.05042 15.5747 7.65169 14.4568 6.92179 13.5638C6.19188 12.6708 5.1757 12.0575 4.04541 11.828V8.72803H11.0454L11.0454 24.728H4.04541V21.628Z" fill="#105AFF"/>
</svg>