<svg xmlns="http://www.w3.org/2000/svg" width="24" height="24" viewBox="0 0 24 24" fill="none">
  <path d="M21.75 12V19.5C21.75 20.4946 21.3549 21.4484 20.6517 22.1516C19.9484 22.8549 18.9946 23.25 18 23.25H12.75C12.5511 23.25 12.3603 23.171 12.2197 23.0303C12.079 22.8897 12 22.6989 12 22.5C12 22.3011 12.079 22.1103 12.2197 21.9697C12.3603 21.829 12.5511 21.75 12.75 21.75H18C18.5967 21.75 19.169 21.5129 19.591 21.091C20.0129 20.669 20.25 20.0967 20.25 19.5H18C17.4033 19.5 16.831 19.2629 16.409 18.841C15.9871 18.419 15.75 17.8467 15.75 17.25V13.5C15.75 12.9033 15.9871 12.331 16.409 11.909C16.831 11.487 17.4033 11.25 18 11.25H20.2172C20.0753 9.69088 19.4926 8.20432 18.5374 6.96397C17.5821 5.72363 16.2936 4.78069 14.8225 4.24531C13.3513 3.70992 11.7581 3.60419 10.2291 3.94047C8.70008 4.27674 7.2983 5.04114 6.1875 6.14437C4.80624 7.50741 3.9543 9.31695 3.78375 11.25H6C6.59674 11.25 7.16903 11.487 7.59099 11.909C8.01295 12.331 8.25 12.9033 8.25 13.5V17.25C8.25 17.8467 8.01295 18.419 7.59099 18.841C7.16903 19.2629 6.59674 19.5 6 19.5H4.5C3.90326 19.5 3.33097 19.2629 2.90901 18.841C2.48705 18.419 2.25 17.8467 2.25 17.25V12C2.2521 10.0686 2.82715 8.18134 3.90235 6.57696C4.97755 4.97258 6.50456 3.72325 8.29012 2.9871C10.0757 2.25096 12.0395 2.0611 13.933 2.44156C15.8265 2.82201 17.5646 3.75567 18.9272 5.12437C19.8268 6.02841 20.5393 7.10108 21.0237 8.28092C21.5081 9.46077 21.7549 10.7246 21.75 12Z" fill="#0F0F0F"/>
</svg>