<svg xmlns="http://www.w3.org/2000/svg" width="20" height="20" viewBox="0 0 20 20" fill="none">
  <path d="M14.3351 9.99414C14.3351 10.1406 14.3058 10.2798 14.2472 10.4116C14.1935 10.5386 14.1056 10.6606 13.9835 10.7778L8.3512 16.293C8.16077 16.4785 7.92883 16.5713 7.6554 16.5713C7.47961 16.5713 7.31604 16.5273 7.16467 16.4395C7.01331 16.3516 6.89124 16.2344 6.79846 16.0879C6.71057 15.9414 6.66663 15.7754 6.66663 15.5898C6.66663 15.3213 6.76917 15.082 6.97424 14.8721L11.9913 9.99414L6.97424 5.11621C6.76917 4.91113 6.66663 4.67187 6.66663 4.39844C6.66663 4.21777 6.71057 4.0542 6.79846 3.90771C6.89124 3.75635 7.01331 3.63672 7.16467 3.54883C7.31604 3.46094 7.47961 3.41699 7.6554 3.41699C7.92883 3.41699 8.16077 3.50977 8.3512 3.69531L13.9835 9.21045C14.1007 9.32764 14.1886 9.44971 14.2472 9.57666C14.3058 9.70361 14.3351 9.84277 14.3351 9.99414Z" fill="#0F0F0F"/>
</svg>