<svg xmlns="http://www.w3.org/2000/svg" width="19" height="19" viewBox="0 0 19 19" fill="none">
  <path d="M15.2498 11.25C15.2513 11.5048 15.1739 11.7539 15.0281 11.9629C14.8824 12.1719 14.6754 12.3306 14.4357 12.4172L10.406 13.9062L8.92163 17.9391C8.83373 18.1779 8.67469 18.384 8.46598 18.5295C8.25726 18.6751 8.00892 18.7532 7.75445 18.7532C7.49998 18.7532 7.25163 18.6751 7.04291 18.5295C6.8342 18.384 6.67516 18.1779 6.58726 17.9391L5.09351 13.9062L1.0607 12.4219C0.82189 12.334 0.615794 12.1749 0.470216 11.9662C0.324637 11.7575 0.246582 11.5092 0.246582 11.2547C0.246582 11.0002 0.324637 10.7519 0.470216 10.5432C0.615794 10.3344 0.82189 10.1754 1.0607 10.0875L5.09351 8.59375L6.57788 4.56094C6.66579 4.32213 6.82482 4.11604 7.03354 3.97046C7.24225 3.82488 7.4906 3.74682 7.74507 3.74682C7.99954 3.74682 8.24789 3.82488 8.4566 3.97046C8.66532 4.11604 8.82436 4.32213 8.91226 4.56094L10.406 8.59375L14.4388 10.0781C14.6787 10.1655 14.8855 10.3251 15.0308 10.535C15.176 10.7449 15.2525 10.9947 15.2498 11.25ZM10.8748 3.75H12.1248V5C12.1248 5.16576 12.1906 5.32473 12.3078 5.44194C12.425 5.55915 12.584 5.625 12.7498 5.625C12.9155 5.625 13.0745 5.55915 13.1917 5.44194C13.3089 5.32473 13.3748 5.16576 13.3748 5V3.75H14.6248C14.7905 3.75 14.9495 3.68415 15.0667 3.56694C15.1839 3.44973 15.2498 3.29076 15.2498 3.125C15.2498 2.95924 15.1839 2.80027 15.0667 2.68306C14.9495 2.56585 14.7905 2.5 14.6248 2.5H13.3748V1.25C13.3748 1.08424 13.3089 0.925268 13.1917 0.808058C13.0745 0.690848 12.9155 0.625 12.7498 0.625C12.584 0.625 12.425 0.690848 12.3078 0.808058C12.1906 0.925268 12.1248 1.08424 12.1248 1.25V2.5H10.8748C10.709 2.5 10.55 2.56585 10.4328 2.68306C10.3156 2.80027 10.2498 2.95924 10.2498 3.125C10.2498 3.29076 10.3156 3.44973 10.4328 3.56694C10.55 3.68415 10.709 3.75 10.8748 3.75ZM17.7498 6.25H17.1248V5.625C17.1248 5.45924 17.0589 5.30027 16.9417 5.18306C16.8245 5.06585 16.6655 5 16.4998 5C16.334 5 16.175 5.06585 16.0578 5.18306C15.9406 5.30027 15.8748 5.45924 15.8748 5.625V6.25H15.2498C15.084 6.25 14.925 6.31585 14.8078 6.43306C14.6906 6.55027 14.6248 6.70924 14.6248 6.875C14.6248 7.04076 14.6906 7.19973 14.8078 7.31694C14.925 7.43415 15.084 7.5 15.2498 7.5H15.8748V8.125C15.8748 8.29076 15.9406 8.44973 16.0578 8.56694C16.175 8.68415 16.334 8.75 16.4998 8.75C16.6655 8.75 16.8245 8.68415 16.9417 8.56694C17.0589 8.44973 17.1248 8.29076 17.1248 8.125V7.5H17.7498C17.9155 7.5 18.0745 7.43415 18.1917 7.31694C18.3089 7.19973 18.3748 7.04076 18.3748 6.875C18.3748 6.70924 18.3089 6.55027 18.1917 6.43306C18.0745 6.31585 17.9155 6.25 17.7498 6.25Z" fill="#0F0F0F"/>
</svg>