<svg xmlns="http://www.w3.org/2000/svg" width="18" height="18" viewBox="0 0 18 18" fill="none">
  <path d="M16.0312 9.00076C16.0312 9.22454 15.9423 9.43915 15.7841 9.59738C15.6259 9.75562 15.4113 9.84451 15.1875 9.84451H4.85156L8.47406 13.4663C8.63256 13.6248 8.72161 13.8398 8.72161 14.064C8.72161 14.2881 8.63256 14.5031 8.47406 14.6616C8.31555 14.8201 8.10056 14.9092 7.8764 14.9092C7.65224 14.9092 7.43725 14.8201 7.27874 14.6616L2.21624 9.59912C2.13758 9.52073 2.07517 9.42759 2.03259 9.32503C1.99 9.22247 1.96808 9.11251 1.96808 9.00146C1.96808 8.89041 1.99 8.78046 2.03259 8.6779C2.07517 8.57534 2.13758 8.48219 2.21624 8.40381L7.27874 3.34131C7.35723 3.26282 7.4504 3.20056 7.55295 3.15809C7.6555 3.11561 7.7654 3.09375 7.8764 3.09375C7.98739 3.09375 8.0973 3.11561 8.19985 3.15809C8.3024 3.20056 8.39557 3.26282 8.47406 3.34131C8.55254 3.41979 8.6148 3.51297 8.65728 3.61551C8.69975 3.71806 8.72161 3.82797 8.72161 3.93896C8.72161 4.04996 8.69975 4.15987 8.65728 4.26241C8.6148 4.36496 8.55254 4.45813 8.47406 4.53662L4.85156 8.15701H15.1875C15.4113 8.15701 15.6259 8.24591 15.7841 8.40414C15.9423 8.56237 16.0312 8.77698 16.0312 9.00076Z" fill="#0F0F0F"/>
</svg>