<svg xmlns="http://www.w3.org/2000/svg" width="24" height="24" viewBox="0 0 24 24" fill="none">
  <path d="M12.001 7.12499C11.0368 7.12499 10.0943 7.41091 9.29258 7.94658C8.49089 8.48225 7.86605 9.24362 7.49707 10.1344C7.12809 11.0252 7.03155 12.0054 7.21966 12.9511C7.40776 13.8967 7.87206 14.7654 8.55384 15.4471C9.23562 16.1289 10.1043 16.5932 11.0499 16.7813C11.9956 16.9694 12.9758 16.8729 13.8666 16.5039C14.7574 16.1349 15.5187 15.5101 16.0544 14.7084C16.5901 13.9067 16.876 12.9642 16.876 12C16.8745 10.7075 16.3604 9.46841 15.4465 8.55449C14.5326 7.64057 13.2935 7.12648 12.001 7.12499ZM12.001 14.625C11.4818 14.625 10.9743 14.471 10.5426 14.1826C10.1109 13.8942 9.77448 13.4842 9.5758 13.0045C9.37712 12.5249 9.32514 11.9971 9.42642 11.4879C9.52771 10.9787 9.77772 10.5109 10.1448 10.1438C10.5119 9.77672 10.9797 9.52672 11.4889 9.42543C11.9981 9.32414 12.5259 9.37613 13.0055 9.57481C13.4852 9.77349 13.8952 10.1099 14.1836 10.5416C14.472 10.9733 14.626 11.4808 14.626 12C14.626 12.6962 14.3494 13.3639 13.8571 13.8561C13.3649 14.3484 12.6972 14.625 12.001 14.625ZM22.6754 9.9778C22.6436 9.81934 22.5781 9.66958 22.4833 9.5387C22.3885 9.40783 22.2667 9.29891 22.126 9.21937L19.5207 7.73343L19.5104 4.79812C19.5098 4.63526 19.4739 4.47446 19.4051 4.32684C19.3363 4.17922 19.2363 4.0483 19.1119 3.94312C18.062 3.05481 16.8532 2.37371 15.5494 1.93593C15.4007 1.88576 15.2431 1.86727 15.0868 1.88164C14.9306 1.89601 14.779 1.94292 14.6419 2.01937L12.001 3.49405L9.36005 2.01843C9.22279 1.94157 9.07094 1.89434 8.91431 1.87981C8.75767 1.86528 8.59972 1.88376 8.45067 1.93405C7.14656 2.37366 5.93769 3.05667 4.88817 3.94687C4.76424 4.05193 4.66454 4.18259 4.59592 4.32986C4.5273 4.47713 4.49139 4.63752 4.49067 4.79999L4.47755 7.73812L1.87598 9.2203C1.73527 9.30015 1.61344 9.4094 1.5188 9.54061C1.42415 9.67182 1.35892 9.8219 1.32755 9.98062C1.06269 11.3148 1.06269 12.688 1.32755 14.0222C1.35916 14.1806 1.42451 14.3303 1.51915 14.4611C1.61378 14.592 1.73549 14.701 1.87598 14.7806L4.48411 16.2666L4.49442 19.2019C4.49499 19.3647 4.53091 19.5255 4.5997 19.6731C4.66849 19.8208 4.76852 19.9517 4.89286 20.0569C5.94276 20.9452 7.15162 21.6263 8.45536 22.0641C8.60408 22.1142 8.76164 22.1327 8.91794 22.1183C9.07423 22.104 9.22578 22.0571 9.36286 21.9806L12.001 20.5059L14.6391 21.9816C14.7764 22.0584 14.9282 22.1056 15.0848 22.1202C15.2415 22.1347 15.3994 22.1162 15.5485 22.0659C16.8526 21.6263 18.0615 20.9433 19.111 20.0531C19.2349 19.9481 19.3346 19.8174 19.4032 19.6701C19.4719 19.5229 19.5078 19.3625 19.5085 19.2L19.5216 16.2619L22.1288 14.7797C22.2695 14.6998 22.3913 14.5906 22.486 14.4594C22.5806 14.3282 22.6459 14.1781 22.6772 14.0194C22.9415 12.6851 22.9408 11.3119 22.6754 9.9778ZM20.5538 13.0884L18.0338 14.5209C17.8548 14.6224 17.7072 14.7713 17.6072 14.9512C17.5566 15.045 17.5032 15.1322 17.4479 15.2212C17.3368 15.3986 17.2773 15.6035 17.2763 15.8128L17.2632 18.6562C16.6567 19.1126 15.9925 19.4868 15.2879 19.7691L12.7425 18.345C12.5747 18.251 12.3855 18.2016 12.1932 18.2016H12.166C12.0591 18.2016 11.9504 18.2016 11.8435 18.2016C11.6424 18.1968 11.4438 18.2457 11.2679 18.3431L8.71973 19.7644C8.01394 19.4835 7.34822 19.1109 6.73973 18.6562L6.72942 15.8212C6.72855 15.6116 6.66913 15.4064 6.55786 15.2287C6.50348 15.1406 6.44911 15.0497 6.39848 14.9587C6.29848 14.7799 6.15124 14.632 5.97286 14.5312L3.45098 13.0903C3.35301 12.3674 3.35301 11.6345 3.45098 10.9116L5.97098 9.47905C6.14972 9.37758 6.29725 9.22908 6.39755 9.04968C6.44817 8.95593 6.50161 8.8678 6.55692 8.77874C6.66803 8.60135 6.72744 8.39649 6.72848 8.18718L6.7388 5.34374C7.34551 4.88866 8.00969 4.51574 8.71411 4.23468L11.2594 5.65874C11.4352 5.75738 11.6345 5.80662 11.836 5.80124C11.9429 5.80124 12.0516 5.80124 12.1585 5.80124C12.3595 5.806 12.5582 5.75714 12.7341 5.65968L15.2822 4.23562C15.988 4.51645 16.6538 4.88903 17.2622 5.34374L17.2725 8.17874C17.2734 8.38837 17.3328 8.59358 17.4441 8.77124C17.4985 8.85937 17.5529 8.9503 17.6035 9.04124C17.7035 9.22007 17.8507 9.36795 18.0291 9.46874L20.551 10.9059C20.6502 11.63 20.6512 12.3641 20.5538 13.0884Z" fill="#B7B7B7"/>
</svg>