<svg width="24" height="24" viewBox="0 0 24 24" fill="none" xmlns="http://www.w3.org/2000/svg">
<path d="M14.6398 8.0399C14.6398 7.86486 14.7093 7.69699 14.8331 7.57321C14.9569 7.44944 15.1248 7.3799 15.2998 7.3799H21.2398C21.4148 7.3799 21.5827 7.44944 21.7065 7.57321C21.8303 7.69699 21.8998 7.86486 21.8998 8.0399C21.8998 8.21495 21.8303 8.38282 21.7065 8.50659C21.5827 8.63037 21.4148 8.6999 21.2398 8.6999H15.2998C15.1248 8.6999 14.9569 8.63037 14.8331 8.50659C14.7093 8.38282 14.6398 8.21495 14.6398 8.0399ZM21.2398 15.2999H15.2998C15.1248 15.2999 14.9569 15.3694 14.8331 15.4932C14.7093 15.617 14.6398 15.7849 14.6398 15.9599C14.6398 16.1349 14.7093 16.3028 14.8331 16.4266C14.9569 16.5504 15.1248 16.6199 15.2998 16.6199H21.2398C21.4148 16.6199 21.5827 16.5504 21.7065 16.4266C21.8303 16.3028 21.8998 16.1349 21.8998 15.9599C21.8998 15.7849 21.8303 15.617 21.7065 15.4932C21.5827 15.3694 21.4148 15.2999 21.2398 15.2999ZM21.2398 10.0199H15.2998C15.1248 10.0199 14.9569 10.0894 14.8331 10.2132C14.7093 10.337 14.6398 10.5049 14.6398 10.6799C14.6398 10.8549 14.7093 11.0228 14.8331 11.1466C14.9569 11.2704 15.1248 11.3399 15.2998 11.3399H21.2398C21.4148 11.3399 21.5827 11.2704 21.7065 11.1466C21.8303 11.0228 21.8998 10.8549 21.8998 10.6799C21.8998 10.5049 21.8303 10.337 21.7065 10.2132C21.5827 10.0894 21.4148 10.0199 21.2398 10.0199ZM21.2398 12.6599H15.2998C15.1248 12.6599 14.9569 12.7294 14.8331 12.8532C14.7093 12.977 14.6398 13.1449 14.6398 13.3199C14.6398 13.4949 14.7093 13.6628 14.8331 13.7866C14.9569 13.9104 15.1248 13.9799 15.2998 13.9799H21.2398C21.4148 13.9799 21.5827 13.9104 21.7065 13.7866C21.8303 13.6628 21.8998 13.4949 21.8998 13.3199C21.8998 13.1449 21.8303 12.977 21.7065 12.8532C21.5827 12.7294 21.4148 12.6599 21.2398 12.6599ZM11.9998 5.3999H8.77405C5.12095 5.3999 2.12703 8.33855 2.0998 11.9496C2.09316 12.8205 2.25897 13.6842 2.58768 14.4907C2.91638 15.2973 3.40148 16.0308 4.01501 16.649C4.62854 17.2673 5.35837 17.7579 6.16241 18.0927C6.96646 18.4276 7.82883 18.5999 8.6998 18.5999H11.9998C12.3499 18.5999 12.6856 18.4608 12.9332 18.2133C13.1807 17.9657 13.3198 17.63 13.3198 17.2799V6.7199C13.3198 6.36982 13.1807 6.03407 12.9332 5.78652C12.6856 5.53897 12.3499 5.3999 11.9998 5.3999Z" fill="#0F0F0F"/>
</svg>
