<svg xmlns="http://www.w3.org/2000/svg" width="25" height="24" viewBox="0 0 25 24" fill="none">
  <path d="M14.0068 11.25V19.5C14.0068 19.6989 13.9278 19.8897 13.7872 20.0303C13.6465 20.171 13.4557 20.25 13.2568 20.25H5.00684C4.80792 20.25 4.61716 20.171 4.47651 20.0303C4.33585 19.8897 4.25684 19.6989 4.25684 19.5V11.25C4.25684 11.0511 4.33585 10.8603 4.47651 10.7197C4.61716 10.579 4.80792 10.5 5.00684 10.5H13.2568C13.4557 10.5 13.6465 10.579 13.7872 10.7197C13.9278 10.8603 14.0068 11.0511 14.0068 11.25ZM20.0068 16.5C19.8079 16.5 19.6172 16.579 19.4765 16.7197C19.3359 16.8603 19.2568 17.0511 19.2568 17.25V18.75H17.0068C16.8079 18.75 16.6172 18.829 16.4765 18.9697C16.3359 19.1103 16.2568 19.3011 16.2568 19.5C16.2568 19.6989 16.3359 19.8897 16.4765 20.0303C16.6172 20.171 16.8079 20.25 17.0068 20.25H19.2568C19.6547 20.25 20.0362 20.092 20.3175 19.8107C20.5988 19.5294 20.7568 19.1478 20.7568 18.75V17.25C20.7568 17.0511 20.6778 16.8603 20.5372 16.7197C20.3965 16.579 20.2057 16.5 20.0068 16.5ZM20.0068 9.75C19.8079 9.75 19.6172 9.82902 19.4765 9.96967C19.3359 10.1103 19.2568 10.3011 19.2568 10.5V13.5C19.2568 13.6989 19.3359 13.8897 19.4765 14.0303C19.6172 14.171 19.8079 14.25 20.0068 14.25C20.2057 14.25 20.3965 14.171 20.5372 14.0303C20.6778 13.8897 20.7568 13.6989 20.7568 13.5V10.5C20.7568 10.3011 20.6778 10.1103 20.5372 9.96967C20.3965 9.82902 20.2057 9.75 20.0068 9.75ZM19.2568 3.75H17.7568C17.5579 3.75 17.3672 3.82902 17.2265 3.96967C17.0859 4.11032 17.0068 4.30109 17.0068 4.5C17.0068 4.69891 17.0859 4.88968 17.2265 5.03033C17.3672 5.17098 17.5579 5.25 17.7568 5.25H19.2568V6.75C19.2568 6.94891 19.3359 7.13968 19.4765 7.28033C19.6172 7.42098 19.8079 7.5 20.0068 7.5C20.2057 7.5 20.3965 7.42098 20.5372 7.28033C20.6778 7.13968 20.7568 6.94891 20.7568 6.75V5.25C20.7568 4.85218 20.5988 4.47064 20.3175 4.18934C20.0362 3.90804 19.6547 3.75 19.2568 3.75ZM14.0068 3.75H11.0068C10.8079 3.75 10.6172 3.82902 10.4765 3.96967C10.3359 4.11032 10.2568 4.30109 10.2568 4.5C10.2568 4.69891 10.3359 4.88968 10.4765 5.03033C10.6172 5.17098 10.8079 5.25 11.0068 5.25H14.0068C14.2057 5.25 14.3965 5.17098 14.5372 5.03033C14.6778 4.88968 14.7568 4.69891 14.7568 4.5C14.7568 4.30109 14.6778 4.11032 14.5372 3.96967C14.3965 3.82902 14.2057 3.75 14.0068 3.75ZM5.00684 8.25C5.20575 8.25 5.39651 8.17098 5.53717 8.03033C5.67782 7.88968 5.75684 7.69891 5.75684 7.5V5.25H7.25684C7.45575 5.25 7.64651 5.17098 7.78717 5.03033C7.92782 4.88968 8.00684 4.69891 8.00684 4.5C8.00684 4.30109 7.92782 4.11032 7.78717 3.96967C7.64651 3.82902 7.45575 3.75 7.25684 3.75H5.75684C5.35901 3.75 4.97748 3.90804 4.69618 4.18934C4.41487 4.47064 4.25684 4.85218 4.25684 5.25V7.5C4.25684 7.69891 4.33585 7.88968 4.47651 8.03033C4.61716 8.17098 4.80792 8.25 5.00684 8.25Z" fill="#0F0F0F"/>
</svg>