<svg width="24" height="24" viewBox="0 0 24 24" fill="none" xmlns="http://www.w3.org/2000/svg">
<path d="M18.9238 3C19.4744 3.00011 20.0022 3.21589 20.3916 3.59961C20.7811 3.98357 21 4.50484 21 5.04785V15.9668C21 16.5098 20.7811 17.0311 20.3916 17.415C20.0022 17.7987 19.4743 18.0145 18.9238 18.0146H13.0576V20.0703H17.7939C18.317 20.0703 18.741 20.4907 18.7412 21.0088C18.7412 21.5271 18.3172 21.9473 17.7939 21.9473H6.42578C5.90256 21.9473 5.47852 21.5271 5.47852 21.0088C5.47872 20.4907 5.90269 20.0703 6.42578 20.0703H11.1621V18.0146H5.07715C4.52637 18.0146 3.99788 17.7989 3.6084 17.415C3.2189 17.0311 3 16.5098 3 15.9668V5.04785C3 4.50487 3.21893 3.98357 3.6084 3.59961C3.99789 3.21565 4.52633 3.00001 5.07715 3H18.9238ZM5.07715 4.36523C4.8937 4.36524 4.71768 4.43667 4.58789 4.56445C4.45806 4.69244 4.38477 4.86685 4.38477 5.04785V15.9668C4.38477 16.1478 4.45808 16.3212 4.58789 16.4492C4.71771 16.5772 4.89355 16.6494 5.07715 16.6494H5.76953V4.36523H5.07715ZM18.2314 16.6494H18.9238C19.1073 16.6493 19.2834 16.5771 19.4131 16.4492C19.5428 16.3213 19.6152 16.1477 19.6152 15.9668V5.04785C19.6152 4.86685 19.5429 4.69244 19.4131 4.56445C19.2834 4.43664 19.1072 4.36535 18.9238 4.36523H18.2314V16.6494Z" fill="#0F0F0F"/>
</svg>
