<svg width="24" height="24" viewBox="0 0 24 24" fill="none" xmlns="http://www.w3.org/2000/svg">
<path d="M10.4706 7.44879C9.05 7.92603 7.92625 9.04978 7.44901 10.4704C7.28762 10.9508 7.20016 11.4652 7.20016 11.9999C7.20016 12.3895 7.24656 12.7682 7.33414 13.1308C7.48783 13.7672 7.7683 14.3541 8.14732 14.8632C8.50828 15.3482 8.95863 15.7626 9.47397 16.0822C10.0321 16.4283 10.6664 16.6631 11.346 16.7557C11.5599 16.7849 11.7783 16.7999 12.0002 16.7999C12.9727 16.7999 13.8776 16.5107 14.6337 16.0136C15.1826 15.6528 15.653 15.1823 16.0139 14.6335C16.511 13.8774 16.8002 12.9724 16.8002 11.9999C16.8002 11.778 16.7851 11.5597 16.756 11.3458C16.6634 10.6662 16.4285 10.0319 16.0824 9.47375C15.7628 8.95841 15.3484 8.50806 14.8635 8.1471C14.3543 7.76808 13.7674 7.48761 13.1311 7.33393C12.7684 7.24634 12.3897 7.19994 12.0002 7.19994C11.4654 7.19994 10.951 7.2874 10.4706 7.44879Z" fill="#0F0F0F"/>
<path fill-rule="evenodd" clip-rule="evenodd" d="M6.0002 2.69995C4.17766 2.69995 2.7002 4.17741 2.7002 5.99995V18C2.7002 19.8225 4.17766 21.3 6.0002 21.3H18.0002C19.8227 21.3 21.3002 19.8225 21.3002 18V5.99995C21.3002 4.17741 19.8227 2.69995 18.0002 2.69995H6.0002ZM5.76424 4.5184C5.84111 4.50626 5.91991 4.49995 6.0002 4.49995H8.32828L4.5002 8.32803V5.99995C4.5002 5.91967 4.5065 5.84086 4.51865 5.764L5.76424 4.5184ZM4.5002 10.8736V13.4192L6.0007 11.9187C6.00034 11.9457 6.00016 11.9728 6.00016 11.9999C6.00016 12.7352 6.13241 13.4396 6.37443 14.0906L4.5002 15.9648V18C4.5002 18.1544 4.52354 18.3034 4.56691 18.4437L7.29153 15.719C7.66551 16.1919 8.1092 16.6071 8.60709 16.9491L6.0562 19.5H8.60178L10.3357 17.7661C10.8642 17.9183 11.4226 17.9999 12.0002 17.9999C12.2321 17.9999 12.461 17.9868 12.6862 17.9612L11.1474 19.5H13.693L19.5002 13.6927V11.1471L17.9614 12.6859C17.987 12.4608 18.0002 12.2319 18.0002 11.9999C18.0002 11.4224 17.9186 10.864 17.7663 10.3355L19.5002 8.60154V6.05595L16.9493 8.60687C16.6073 8.10898 16.1921 7.66529 15.7193 7.29131L18.4439 4.56666C18.3037 4.5233 18.1547 4.49995 18.0002 4.49995H15.965L14.0908 6.37421C13.4398 6.13219 12.7354 5.99994 12.0002 5.99994C11.973 5.99994 11.946 6.00012 11.9189 6.00048L13.4194 4.49995H10.8739L4.5002 10.8736ZM19.5002 16.2383L16.2385 19.5H18.0002C18.8286 19.5 19.5002 18.8284 19.5002 18V16.2383Z" fill="#0F0F0F"/>
</svg>
