<svg width="34" height="34" viewBox="0 0 34 34" fill="none" xmlns="http://www.w3.org/2000/svg">
<path d="M17 33.0156C14.75 33.0156 12.6406 32.5885 10.6719 31.7344C8.70312 30.8906 6.96875 29.7188 5.46875 28.2188C3.97917 26.7292 2.8125 25.0052 1.96875 23.0469C1.125 21.0781 0.703125 18.9688 0.703125 16.7188C0.703125 14.4688 1.125 12.3594 1.96875 10.3906C2.8125 8.42188 3.97917 6.69271 5.46875 5.20312C6.96875 3.70312 8.70312 2.53125 10.6719 1.6875C12.6406 0.84375 14.75 0.421875 17 0.421875C19.25 0.421875 21.3594 0.84375 23.3281 1.6875C25.2969 2.53125 27.026 3.70312 28.5156 5.20312C30.0052 6.69271 31.1719 8.42188 32.0156 10.3906C32.8698 12.3594 33.2969 14.4688 33.2969 16.7188C33.2969 18.9688 32.8698 21.0781 32.0156 23.0469C31.1719 25.0052 30.0052 26.7292 28.5156 28.2188C27.026 29.7188 25.2969 30.8906 23.3281 31.7344C21.3594 32.5885 19.25 33.0156 17 33.0156ZM17 8.48438C16.7812 8.48438 16.5677 8.52604 16.3594 8.60938C16.151 8.68229 15.9375 8.82812 15.7188 9.04688L10.4375 14.125C10.2917 14.2708 10.1771 14.4271 10.0938 14.5938C10.0208 14.7604 9.98438 14.9531 9.98438 15.1719C9.98438 15.5781 10.125 15.9115 10.4062 16.1719C10.6979 16.4323 11.0365 16.5625 11.4219 16.5625C11.8698 16.5625 12.2396 16.401 12.5312 16.0781L14.6562 13.8125L15.4844 12.7031L15.3438 15.0938V23.3281C15.3438 23.7656 15.5052 24.1458 15.8281 24.4688C16.151 24.7917 16.5417 24.9531 17 24.9531C17.4583 24.9531 17.849 24.7917 18.1719 24.4688C18.4948 24.1458 18.6562 23.7656 18.6562 23.3281V15.0938L18.5156 12.7031L19.3438 13.8125L21.4844 16.0781C21.7656 16.401 22.1302 16.5625 22.5781 16.5625C22.9635 16.5625 23.2969 16.4323 23.5781 16.1719C23.8698 15.9115 24.0156 15.5781 24.0156 15.1719C24.0156 14.9531 23.974 14.7604 23.8906 14.5938C23.8177 14.4271 23.7083 14.2708 23.5625 14.125L18.2812 9.04688C18.0625 8.82812 17.849 8.68229 17.6406 8.60938C17.4323 8.52604 17.2188 8.48438 17 8.48438Z" fill="#0F0F0F"/>
</svg>
