<svg xmlns="http://www.w3.org/2000/svg" width="24" height="24" viewBox="0 0 24 24" fill="none">
  <g clip-path="url(#clip0_2621_9349)">
    <path d="M20.2455 14.7505C21.1805 15.3645 21.1375 16.7875 20.1165 17.3265L12.9355 21.1225C12.6474 21.2749 12.3264 21.3545 12.0005 21.3545C11.6745 21.3545 11.3536 21.2749 11.0655 21.1225L3.88446 17.3265C2.86446 16.7865 2.82046 15.3645 3.75546 14.7505L3.81846 14.7905L11.0655 18.6225C11.3536 18.7749 11.6745 18.8545 12.0005 18.8545C12.3264 18.8545 12.6474 18.7749 12.9355 18.6225L20.1165 14.8265C20.161 14.8032 20.2034 14.7779 20.2455 14.7505ZM20.2455 10.7505C20.4519 10.8873 20.6213 11.0731 20.7385 11.2913C20.8557 11.5095 20.9171 11.7533 20.9171 12.001C20.9171 12.2487 20.8557 12.4925 20.7385 12.7107C20.6213 12.9289 20.4519 13.1147 20.2455 13.2515L20.1165 13.3265L12.9355 17.1225C12.6743 17.2606 12.3857 17.3392 12.0906 17.3525C11.7954 17.3658 11.501 17.3135 11.2285 17.1995L11.0665 17.1225L3.88446 13.3265C2.86446 12.7865 2.82046 11.3645 3.75546 10.7505L3.81846 10.7905L11.0655 14.6225C11.3268 14.7608 11.6155 14.8394 11.9108 14.8527C12.2062 14.866 12.5008 14.8137 12.7735 14.6995L12.9355 14.6225L20.1165 10.8265C20.161 10.8032 20.2034 10.7779 20.2455 10.7505ZM12.9355 2.8785L20.1165 6.6745C21.1825 7.2375 21.1825 8.7645 20.1165 9.3265L12.9355 13.1235C12.6474 13.2759 12.3264 13.3555 12.0005 13.3555C11.6745 13.3555 11.3536 13.2759 11.0655 13.1235L3.88446 9.3265C2.81846 8.7635 2.81846 7.2375 3.88446 6.6745L11.0655 2.8785C11.3536 2.72613 11.6745 2.64648 12.0005 2.64648C12.3264 2.64648 12.6474 2.72613 12.9355 2.8785Z" fill="#0F0F0F"/>
  </g>
  <defs>
    <clipPath id="clip0_2621_9349">
      <rect width="24" height="24" fill="white"/>
    </clipPath>
  </defs>
</svg>